<?xml version="1.0" standalone="no"?>
<!DOCTYPE svg PUBLIC "-//W3C//DTD SVG 1.1//EN" "http://www.w3.org/Graphics/SVG/1.1/DTD/svg11.dtd" >
<svg xmlns="http://www.w3.org/2000/svg" xmlns:xlink="http://www.w3.org/1999/xlink" version="1.1">
<metadata>
Created by FontForge 20170731 at Fri Sep  3 14:33:52 2010
 By Aleksey,,,
(C) "ATRI",Graphic Bureau "Az-Zet"(R),V. Kuchmin,21.07.92
</metadata>
<defs>
<font id="AvantiBoldItalic" horiz-adv-x="2466" >
  <font-face 
    font-family="Avanti"
    font-weight="700"
    font-style="italic"
    font-stretch="normal"
    units-per-em="4096"
    panose-1="2 11 -30 0 0 0 0 0 0 0"
    ascent="3276"
    descent="-820"
    x-height="2269"
    cap-height="3031"
    bbox="-164 -926 4891 3875"
    underline-thickness="90"
    underline-position="-227"
    slope="-11"
    unicode-range="U+0020-2122"
  />
<missing-glyph horiz-adv-x="3072" 
d="M512 0v2560h2048v-2560h-2048zM2494 66v2428h-1916v-2428h1916z" />
    <glyph glyph-name=".notdef" horiz-adv-x="3072" 
d="M512 0v2560h2048v-2560h-2048zM2494 66v2428h-1916v-2428h1916z" />
    <glyph glyph-name=".null" horiz-adv-x="0" 
 />
    <glyph glyph-name="nonmarkingreturn" horiz-adv-x="0" 
 />
    <glyph glyph-name="space" unicode=" " horiz-adv-x="1565" 
 />
    <glyph glyph-name="exclam" unicode="!" horiz-adv-x="1188" 
d="M451 770l483 2261h549l-484 -2261h-548zM295 0l106 524h549l-106 -524h-549z" />
    <glyph glyph-name="quotedbl" unicode="&#x22;" horiz-adv-x="1516" 
d="M303 2105v926h311v-926h-311zM852 2105v926h311v-926h-311z" />
    <glyph glyph-name="numbersign" unicode="#" horiz-adv-x="2327" 
d="M2048 1360v-402h-418l-131 -958h-360l123 958h-344l-132 -958h-360l123 958h-410v402h467l58 377h-410v401h459l123 893h352l-115 -893h352l115 893h369l-123 -893h368v-401h-417l-49 -377h360zM1368 1737h-352l-49 -377h352z" />
    <glyph glyph-name="dollar" unicode="$" horiz-adv-x="2327" 
d="M459 1024h540q0 -14 -4 -45t-4 -37q0 -116 82 -193t205 -77q148 0 272 103t154 249v66q0 98 -49 172q-51 77 -230 131q-622 177 -622 630q0 18 3.5 51t8.5 65.5t12 80.5q78 333 320 541q209 193 385 205l115 540h507l-114 -540q178 -73 277.5 -225t99.5 -349
q0 -23 -4.5 -62.5t-4.5 -60.5h-516v17q0 103 -57 166t-164 63q-103 0 -202 -83t-117 -187q0 -18 -4.5 -43t-4.5 -31q0 -114 83 -170t237 -109q174 -59 264 -99t170 -122q156 -156 156 -434q0 -88 -17 -213q-73 -343 -335 -582q-234 -202 -443 -245l-123 -549h-508l123 549
q-147 23 -267.5 113.5t-188.5 224t-68 284.5q0 20 25 156z" />
    <glyph glyph-name="percent" unicode="%" horiz-adv-x="3555" 
d="M918 0l1253 3031h418l-1254 -3031h-417zM827 3088q198 0 365.5 -98.5t265.5 -268t98 -370.5t-97.5 -370t-265.5 -268t-366 -99q-201 0 -370.5 98.5t-268 268t-98.5 370.5t99 371t268 268t370 98zM827 2630q-121 0 -203.5 -80.5t-82.5 -198.5q0 -116 83.5 -201.5
t194.5 -85.5q117 0 202 85t85 202t-81 198t-198 81zM2687 1401q201 0 371 -99t268 -268t98 -370t-98 -370.5t-268 -268.5t-371 -99q-200 0 -370 100t-268.5 270t-98.5 368q0 201 98 370t268 268t371 99zM2687 950q-124 0 -205.5 -76.5t-81.5 -193.5q0 -119 83 -207t204 -88
q77 0 141 41t101 109.5t37 144.5q0 116 -80 193t-199 77z" />
    <glyph glyph-name="ampersand" unicode="&#x26;" horiz-adv-x="2802" 
d="M2482 1786h598l-713 -909l410 -582l-467 -352l-328 434q-420 -451 -843 -451q-237 0 -427.5 96.5t-299.5 271t-109 394.5q0 19 4 53.5t10 72.5t11 71q37 159 104.5 286t163 232t216.5 190.5t269 159.5q-155 232 -155 410q0 57 16 139q49 218 187.5 398t338.5 284t416 104
q179 0 323.5 -75.5t226 -210t81.5 -303.5q0 -58 -16 -156q-107 -496 -631 -746l213 -311zM1606 1974q152 64 249.5 140t118.5 196v49q0 89 -54 143t-151 54q-111 0 -193.5 -66.5t-100.5 -171.5q0 -11 -4.5 -34t-4.5 -31q0 -100 140 -279zM1696 795l-361 524
q-405 -162 -467 -459q0 -11 -8 -44t-8 -46q0 -139 98 -225t246 -86q260 0 500 336z" />
    <glyph glyph-name="quotesingle" unicode="'" horiz-adv-x="950" 
d="M303 2105v926h311v-926h-311z" />
    <glyph glyph-name="parenleft" unicode="(" horiz-adv-x="1901" 
d="M1442 49l-123 -573q-151 23 -276 117.5t-216.5 227.5t-154.5 277q-156 348 -156 721q0 150 49 434q40 190 118 380.5t189 373t242 336.5q104 124 210 226.5t231 196t256 160t262 97.5l-123 -565q-210 -139 -379 -333.5t-280 -418.5t-161 -461q-40 -177 -40 -352
q0 -253 89 -476.5t263 -367.5z" />
    <glyph glyph-name="parenright" unicode=")" horiz-adv-x="1614" 
d="M672 2458l123 565q429 -118 663 -680q123 -295 123 -655q0 -205 -41 -435q-45 -206 -122 -400.5t-189 -377.5t-262 -352q-208 -243 -448.5 -422.5t-477.5 -224.5l123 573q207 132 375.5 325t280.5 417t163 454q33 152 33 344q0 260 -86 488t-258 381z" />
    <glyph glyph-name="asterisk" unicode="*" horiz-adv-x="1851" 
d="M1122 1868l-229 123l303 376l-418 -32l66 286l401 -24l-147 360l278 123l107 -368l270 376l205 -147l-295 -344l418 24l-66 -286l-409 24l155 -344l-262 -147l-115 377z" />
    <glyph glyph-name="plus" unicode="+" horiz-adv-x="2515" 
d="M1008 1556v779h475v-779h794v-475h-794v-811h-475v811h-795v475h795z" />
    <glyph glyph-name="comma" unicode="," horiz-adv-x="1188" 
d="M295 0v549h549v-524q0 -166 -26 -263.5t-122 -187.5q-147 -147 -368 -147h-25v270q238 44 238 229v74h-246z" />
    <glyph glyph-name="hyphen" unicode="-" horiz-adv-x="1753" 
d="M303 1065v483h1139v-483h-1139z" />
    <glyph glyph-name="period" unicode="." horiz-adv-x="1188" 
d="M295 0v549h549v-549h-549z" />
    <glyph glyph-name="slash" unicode="/" horiz-adv-x="1901" 
d="M0 -524l2073 3555h385l-2081 -3555h-377z" />
    <glyph glyph-name="zero" unicode="0" horiz-adv-x="2277" 
d="M2580 2023l-221 -1032q-98 -465 -393 -729q-168 -156 -388.5 -246t-430.5 -90q-458 0 -705 295q-155 192 -155 451q0 119 49 344l213 1007q99 457 393 730q118 109 261.5 184.5t296.5 113t294 37.5q209 0 383.5 -75t288.5 -220q147 -169 147 -466q0 -112 -33 -304z
M1098 2015l-213 -983q-4 -32 -14.5 -106t-10.5 -115q0 -101 49 -188q44 -74 128.5 -119t183.5 -45q238 0 409 172q83 76 120.5 167t68.5 226l213 1008q16 98 16 147q0 167 -97 272t-280 105q-216 0 -401 -172q-130 -140 -172 -369z" />
    <glyph glyph-name="one" unicode="1" horiz-adv-x="2277" 
d="M1008 0l532 2515h-377l107 516h925l-639 -3031h-548z" />
    <glyph glyph-name="two" unicode="2" horiz-adv-x="2277" 
d="M172 0l107 516l1253 975q213 165 337 304t163 319q8 32 8 106q0 144 -93.5 240t-250.5 96t-284.5 -78t-205.5 -209t-100 -287h-549l25 115q56 264 237.5 493t438 363.5t520.5 134.5q238 0 422.5 -100t286.5 -277.5t102 -400.5q0 -147 -17 -221q-81 -348 -377 -655
l-466 -402l-689 -516h1196l-106 -516h-1958z" />
    <glyph glyph-name="three" unicode="3" horiz-adv-x="2277" 
d="M1196 1450l115 516h32q199 0 330.5 68t169.5 252v57q0 94 -62.5 153.5t-166.5 59.5q-109 0 -194 -75t-109 -187h-541q40 211 187.5 395t355 291.5t416.5 107.5q190 0 344.5 -86t240.5 -237t86 -332q0 -106 -8 -156q-84 -364 -377 -540q163 -58 241.5 -212.5t78.5 -361.5
q0 -89 -17 -229q-47 -214 -169 -401.5t-295 -323t-377.5 -209.5t-419.5 -74q-232 0 -420 104t-293.5 286t-105.5 405q0 66 16 180h549q0 -11 -4 -40t-4 -42q0 -152 117 -256t284 -104q195 0 366.5 141.5t215.5 333.5q0 17 4 54t4 52q0 207 -131 312q-125 98 -410 98h-49z
" />
    <glyph glyph-name="four" unicode="4" horiz-adv-x="2277" 
d="M188 901l1844 2130h458l-434 -2064h320l-115 -516h-319l-91 -451h-540l90 451h-1311zM1516 967l237 1138l-967 -1138h730z" />
    <glyph glyph-name="five" unicode="5" horiz-adv-x="2277" 
d="M2482 3031l-106 -516h-967l-213 -557q219 82 393 82q233 0 409 -111t268.5 -299.5t92.5 -408.5q0 -119 -24 -230q-61 -287 -251.5 -531.5t-460 -389t-550.5 -144.5q-229 0 -425.5 109t-311.5 297.5t-115 412.5q0 63 17 156h548q0 -3 -4 -20t-4 -21q0 -112 45.5 -203.5
t131 -144.5t200.5 -53q232 0 410.5 153.5t220.5 386.5q8 41 8 115q0 167 -114.5 280t-286.5 113q-247 0 -443 -196l-458 131l622 1589h1368z" />
    <glyph glyph-name="six" unicode="6" horiz-adv-x="2277" 
d="M1810 3031h648l-902 -1032l164 16q175 0 318.5 -76.5t238.5 -209.5q148 -197 148 -476q0 -124 -25 -245q-64 -290 -254.5 -539.5t-461 -396t-562.5 -146.5q-252 0 -446 107t-300 296t-106 425q0 85 33 254q67 361 369 704zM1450 1507q-137 0 -266.5 -67t-222 -184
t-125.5 -257q0 -26 -8.5 -67t-8.5 -55q0 -177 112.5 -297.5t297.5 -120.5q136 0 267.5 70.5t225 189t121.5 256.5q0 17 4 54t4 52q0 178 -111 302t-290 124z" />
    <glyph glyph-name="seven" unicode="7" horiz-adv-x="2277" 
d="M352 0l1663 2515h-1212l106 516h1778l-107 -516l-1622 -2515h-606z" />
    <glyph glyph-name="eight" unicode="8" horiz-adv-x="2277" 
d="M926 1688q-148 201 -148 368q0 29 10 89.5t15 99.5q50 230 192.5 422.5t351 306.5t439.5 114q194 0 343.5 -85.5t230.5 -235.5t81 -334q0 -66 -16 -180q-72 -349 -369 -565q303 -170 303 -558q0 -110 -24 -221q-56 -264 -241.5 -490.5t-446 -359.5t-525.5 -133
q-241 0 -430 100.5t-293 281t-104 405.5q0 85 33 229q34 157 118.5 307t210 267.5t269.5 171.5zM1688 2556q-135 0 -248.5 -90.5t-145.5 -220.5q0 -9 -4 -34t-4 -32q0 -111 73.5 -182.5t188.5 -71.5q129 0 242.5 93.5t142.5 226.5v57q0 107 -68.5 180.5t-176.5 73.5z
M1434 1393q-125 0 -248 -63t-211 -172.5t-115 -239.5q0 -13 -8 -46t-8 -45q0 -155 110 -261.5t275 -106.5q124 0 244.5 62t205 168t107.5 229q0 15 4 52t4 54q0 106 -45.5 190t-127.5 131.5t-187 47.5z" />
    <glyph glyph-name="nine" unicode="9" horiz-adv-x="2277" 
d="M459 0l876 1016h-98q-233 0 -406 96.5t-264.5 267t-91.5 381.5q0 85 33 238q64 295 251 546t458 397t569 146q215 0 392.5 -84.5t295.5 -234.5q156 -218 156 -492q0 -92 -33 -278q-31 -150 -90.5 -278t-143.5 -245.5t-209 -263.5l-1056 -1212h-639zM1663 2556
q-131 0 -258.5 -71.5t-217.5 -190t-114 -246.5q-16 -82 -16 -139q0 -175 107.5 -284t293.5 -109q139 0 268.5 72t219 192t118.5 260q9 33 9 114q0 176 -113 289t-297 113z" />
    <glyph glyph-name="colon" unicode=":" horiz-adv-x="1188" 
d="M295 0l115 549h548l-114 -549h-549zM614 1516l115 540h549l-115 -540h-549z" />
    <glyph glyph-name="semicolon" unicode=";" horiz-adv-x="1188" 
d="M295 0l115 549h548l-114 -524q-35 -167 -82 -264t-164 -187q-77 -71 -185.5 -109t-207.5 -38h-25l58 270q246 45 286 229l17 74h-246zM614 1516l115 540h549l-115 -540h-549z" />
    <glyph glyph-name="less" unicode="&#x3c;" 
d="M2417 631l-99 -459l-1884 926l82 401l2286 934l-99 -459l-1630 -680z" />
    <glyph glyph-name="equal" unicode="=" 
d="M2277 1942v-476h-2064v476h2064zM2277 1139v-467h-2064v467h2064z" />
    <glyph glyph-name="greater" unicode="&#x3e;" 
d="M328 631l1622 663l-1336 680l99 459l1884 -934l-82 -401l-2286 -926z" />
    <glyph glyph-name="question" unicode="?" horiz-adv-x="2327" 
d="M1130 2138h-548q104 375 319 590q164 164 397.5 262t438.5 98q169 0 316.5 -70.5t248.5 -191.5q156 -193 156 -491q0 -75 -17 -213q-43 -205 -187 -367.5t-386 -345.5q-167 -119 -249 -226t-112 -274l-32 -139h-549l32 123q57 270 205 475q88 128 172.5 205t229.5 180
q144 100 225 186.5t102 206.5q9 33 9 107q0 131 -83 209t-229 78q-176 0 -291 -109.5t-168 -292.5zM770 0l107 524h548l-106 -524h-549z" />
    <glyph glyph-name="at" unicode="@" horiz-adv-x="3080" 
d="M2490 582h385q-153 -207 -345.5 -354.5t-419 -224.5t-480.5 -77q-442 0 -812.5 204.5t-586 566.5t-215.5 810q0 437 210 800.5t576 572t804 208.5q570 0 983 -352q467 -387 467 -934q0 -524 -328 -852q-128 -135 -340.5 -247.5t-380.5 -112.5q-97 0 -171.5 56t-74.5 149
l8 16q-170 -197 -426 -197q-209 0 -363.5 97t-235 266t-80.5 375q0 244 105.5 465.5t299.5 357t447 135.5q333 0 507 -246l41 213h394l-205 -1220q0 -13 -4 -46t-4 -44q0 -24 19.5 -41t45.5 -17q67 0 147.5 58t139.5 131q77 113 120.5 269t43.5 304q0 342 -147.5 592
t-412 382t-604.5 132q-364 0 -655.5 -163t-452.5 -454t-161 -653q0 -286 101 -522t283.5 -403.5t426.5 -255.5t524 -88q227 0 432.5 90.5t394.5 253.5zM1163 1417q0 -156 84 -262t236 -106q124 0 221 65t151 171.5t54 230.5q0 149 -97 250.5t-247 101.5q-110 0 -202.5 -66.5
t-146 -172t-53.5 -212.5z" />
    <glyph glyph-name="A" unicode="A" horiz-adv-x="3031" 
d="M33 0l1900 3031h434l639 -3031h-622l-164 786h-1073l-500 -786h-614zM1466 1327h648l-123 918z" />
    <glyph glyph-name="B" unicode="B" horiz-adv-x="2417" 
d="M279 0l639 3031h638q228 0 398.5 -22t298.5 -93q134 -79 214.5 -230.5t80.5 -318.5q0 -90 -8 -131q-46 -188 -168.5 -346.5t-298.5 -234.5q185 -60 285 -210.5t100 -346.5q0 -51 -17 -172q-48 -219 -184.5 -405t-339.5 -316q-185 -120 -390.5 -158.5t-486.5 -46.5h-761z
M958 549h230q151 0 264 20.5t227 85.5q170 105 205 295q0 14 4 41t4 33q0 143 -147 238q-95 57 -303 57h-320zM1237 1868h106q12 0 45 -4t46 -4q173 0 295 49q84 37 147.5 114.5t81.5 163.5v58q0 70 -35.5 129.5t-95.5 83.5q-41 24 -172 24h-287z" />
    <glyph glyph-name="C" unicode="C" horiz-adv-x="3228" 
d="M2621 827h648q-127 -203 -306.5 -368t-396.5 -286t-443.5 -184t-443.5 -63q-368 0 -659.5 166.5t-455 456.5t-163.5 639q0 54 41 328q88 420 378.5 783t695 576t819.5 213q227 0 433 -64t371 -183.5t278.5 -294t154.5 -383.5h-639q-106 173 -300 275t-421 102
q-270 0 -527.5 -141.5t-441.5 -382t-244 -517.5q-7 -50 -12 -82t-8.5 -68.5t-3.5 -54.5q0 -222 106 -411t292 -298.5t413 -109.5q430 0 835 352z" />
    <glyph glyph-name="D" unicode="D" horiz-adv-x="2892" 
d="M279 0l639 3031h638q415 -7 706.5 -76.5t490.5 -275.5q145 -151 219.5 -369.5t74.5 -466.5q0 -201 -32 -344q-62 -317 -265 -628t-489 -519q-297 -212 -609 -282t-726 -70h-647zM958 549h66q300 0 501.5 35.5t407.5 169t343.5 327.5t181.5 418q24 111 24 230
q0 174 -64 326t-190 247q-142 115 -337 147.5t-482 32.5h-41z" />
    <glyph glyph-name="E" unicode="E" horiz-adv-x="2138" 
d="M279 0l639 3031h1630l-115 -549h-1065l-147 -696h1015l-114 -541h-1016l-148 -696h1065l-114 -549h-1630z" />
    <glyph glyph-name="F" unicode="F" horiz-adv-x="1991" 
d="M279 0l639 3031h1540l-115 -549h-975l-147 -696h933l-114 -541h-934l-262 -1245h-565zM279 0l639 3031h1540l-115 -549h-975l-524 -2482h-565z" />
    <glyph glyph-name="G" unicode="G" horiz-adv-x="3465" 
d="M3654 2138h-672q-90 188 -285.5 295t-427.5 107q-403 0 -753 -263q-123 -90 -227.5 -214t-178.5 -267t-102 -280q-25 -183 -25 -205q0 -281 164 -500q79 -108 189 -182.5t245.5 -114t278.5 -39.5q267 0 548.5 152t450.5 389h-1270l115 532h1974l-16 -65
q-69 -324 -256.5 -610t-457.5 -499t-584.5 -330.5t-634.5 -117.5q-375 0 -681.5 159t-480.5 443.5t-174 642.5q0 56 41 328q74 332 264.5 622t463.5 508t590 338.5t640 120.5q305 0 576 -117t452 -332.5t234 -500.5z" />
    <glyph glyph-name="H" unicode="H" horiz-adv-x="2802" 
d="M279 0l639 3031h565l-254 -1212h1081l254 1212h557l-639 -3031h-557l262 1270h-1081l-262 -1270h-565z" />
    <glyph glyph-name="I" unicode="I" horiz-adv-x="1188" 
d="M279 0l639 3031h565l-639 -3031h-565z" />
    <glyph glyph-name="J" unicode="J" horiz-adv-x="1991" 
d="M1778 3031h557l-451 -2138q-42 -201 -98.5 -338t-179.5 -276q-146 -166 -341 -259.5t-397 -93.5q-193 0 -351.5 77t-251.5 218t-93 320q0 57 16 155h557q0 -204 213 -204q284 0 361 368z" />
    <glyph glyph-name="K" unicode="K" horiz-adv-x="2564" 
d="M279 0l639 3031h565l-279 -1311l1221 1311h672l-1467 -1491l828 -1540h-672l-664 1327l-278 -1327h-565z" />
    <glyph glyph-name="L" unicode="L" horiz-adv-x="1901" 
d="M279 0l639 3031h565l-525 -2482h926l-115 -549h-1490z" />
    <glyph glyph-name="M" unicode="M" horiz-adv-x="3695" 
d="M279 0l639 3031h770l319 -2318l1311 2318h762l-639 -3031h-557l475 2269l-1262 -2269h-475l-303 2269l-475 -2269h-565z" />
    <glyph glyph-name="N" unicode="N" horiz-adv-x="3031" 
d="M279 0l639 3031h630l795 -2212l467 2212h565l-639 -3031h-622l-803 2204l-467 -2204h-565z" />
    <glyph glyph-name="O" unicode="O" horiz-adv-x="3416" 
d="M2359 3088q363 0 652.5 -163.5t449.5 -451t160 -638.5q0 -184 -33 -336q-89 -430 -376 -791t-694.5 -571.5t-829.5 -210.5q-367 0 -663.5 163t-464 450t-167.5 641q0 47 41 319q93 435 383.5 800t701.5 577t840 212zM2236 2540q-275 0 -538.5 -137.5t-448.5 -373.5
t-241 -513q-25 -206 -25 -222q0 -226 104 -414.5t291.5 -296.5t423.5 -108q269 0 533 141.5t453.5 381t250.5 518.5q17 138 17 204q0 174 -58.5 323t-168 261t-260.5 174t-333 62z" />
    <glyph glyph-name="P" unicode="P" horiz-adv-x="2327" 
d="M844 0h-565l639 3031h786q161 0 278.5 -10t231.5 -46.5t203 -107.5q120 -89 187 -242.5t67 -322.5q0 -57 -17 -197q-34 -150 -104 -290t-176 -262.5t-244 -217.5q-168 -117 -369.5 -156.5t-449.5 -39.5q-21 0 -62 4t-61 4h-107zM1196 1696h98q15 0 58 -4t65 -4
q158 0 320 41q135 37 232.5 137t127.5 231q0 13 4 41t4 41q0 103 -64 179t-165 100q-111 24 -279 24h-229z" />
    <glyph glyph-name="Q" unicode="Q" horiz-adv-x="3465" 
d="M3482 434l-107 -508h-74q-396 0 -663 230q-197 -108 -446 -169t-472 -61q-372 0 -676 159.5t-477.5 443.5t-173.5 642q0 56 41 328q50 218 142.5 417t231 376t314.5 321q184 151 393.5 257.5t429.5 162t431 55.5q281 0 523 -92.5t418 -260.5t272.5 -398.5t96.5 -501.5
q0 -183 -32 -336q-119 -560 -566 -983q137 -82 303 -82h91zM2253 573q-457 394 -893 394q-175 0 -295 -49q221 -443 827 -443q91 0 164.5 22.5t196.5 75.5zM1008 1532l-25 -164q204 57 434 57q451 0 836 -229q298 -178 450 -360q303 245 385 655q17 140 17 213
q0 232 -105 423.5t-297 302t-434 110.5q-213 0 -423 -82.5t-396 -237.5q-161 -135 -280.5 -319t-161.5 -369z" />
    <glyph glyph-name="R" unicode="R" horiz-adv-x="2417" 
d="M279 0l639 3031h876q272 -8 446 -47.5t300 -165.5q98 -96 151 -243.5t53 -305.5q0 -66 -16 -196q-29 -162 -140 -352t-245 -312q-255 -221 -598 -287l582 -1122h-689l-548 1163l-246 -1163h-565zM1180 1589h303q314 0 475 123q167 142 205 328q8 33 8 98q0 160 -98 246
q-109 98 -320 98h-385z" />
    <glyph glyph-name="S" unicode="S" horiz-adv-x="2138" 
d="M238 852h589q0 -13 -8 -46t-8 -44q0 -131 102.5 -209t249.5 -78q163 0 301 107t174 270q0 18 4.5 50t4.5 48q0 170 -117 262.5t-309 155.5q-184 65 -288 120.5t-179 158.5q-131 169 -131 417q0 66 16 164q51 239 216 437t396 310.5t469 112.5q198 0 361 -91t257.5 -248.5
t94.5 -348.5q0 -56 -16 -172h-582v49q0 115 -79 189t-191 74q-137 0 -237 -90.5t-132 -229.5q0 -7 -4 -36t-4 -38q0 -109 85 -172.5t234 -122.5q213 -77 323.5 -129.5t201.5 -148.5q196 -184 196 -475q0 -103 -24 -213q-56 -265 -235.5 -485.5t-431.5 -347t-513 -126.5
q-223 0 -409.5 96t-294 265.5t-107.5 376.5q0 30 25 188z" />
    <glyph glyph-name="T" unicode="T" horiz-adv-x="1753" 
d="M590 0l524 2482h-557l115 549h1679l-115 -549h-565l-524 -2482h-557z" />
    <glyph glyph-name="U" unicode="U" horiz-adv-x="2654" 
d="M918 3031h565l-402 -1892q-6 -39 -27.5 -140t-21.5 -155q0 -53 17 -115q80 -254 352 -254q108 0 223 57.5t195 155.5q80 90 113 188.5t67 262.5l401 1892h566l-402 -1892q-59 -269 -142 -463.5t-251 -356.5q-194 -179 -429 -286t-456 -107q-211 0 -400 102t-304 267
q-123 196 -123 426q0 85 57 418z" />
    <glyph glyph-name="V" unicode="V" horiz-adv-x="2802" 
d="M1212 0l-540 3031h590l327 -2302l1303 2302h590l-1811 -3031h-459z" />
    <glyph glyph-name="W" unicode="W" horiz-adv-x="3654" 
d="M909 0l-237 3031h573l74 -2122l975 2122h409l58 -2122l983 2122h573l-1515 -3031h-451l-65 2007l-926 -2007h-451z" />
    <glyph glyph-name="X" unicode="X" horiz-adv-x="2802" 
d="M25 0l1359 1507l-720 1524h655l491 -1040l943 1040h655l-1368 -1524l729 -1507h-655l-508 1032l-926 -1032h-655z" />
    <glyph glyph-name="Y" unicode="Y" horiz-adv-x="2564" 
d="M1008 0l237 1122l-590 1909h615l368 -1393l951 1393h614l-1393 -1909l-237 -1122h-565z" />
    <glyph glyph-name="Z" unicode="Z" horiz-adv-x="2089" 
d="M172 483l1581 1999h-1089l114 549h1753l-106 -508l-1565 -1974h1221l-115 -549h-1892z" />
    <glyph glyph-name="bracketleft" unicode="[" horiz-adv-x="1663" 
d="M1835 3031l-123 -590q-221 -65 -325.5 -266.5t-165.5 -495.5l-197 -925q-41 -254 -41 -312q0 -299 221 -376l-123 -590q-191 11 -338 131t-235 295q-98 206 -98 442q0 177 65 500l205 950q55 259 149 454.5t277 372.5q389 389 729 410z" />
    <glyph glyph-name="backslash" unicode="\" horiz-adv-x="2564" 
d="M1638 0l-655 3031h426l655 -3031h-426z" />
    <glyph glyph-name="bracketright" unicode="]" horiz-adv-x="1376" 
d="M1425 1794l-204 -950q-56 -283 -153.5 -514t-272.5 -428q-389 -404 -754 -426l123 590q214 66 317.5 247t157.5 441l197 925q7 52 21 133t21 138t7 106q0 321 -213 385l123 590q338 -21 565 -410q106 -180 106 -442q0 -170 -41 -385z" />
    <glyph glyph-name="asciicircum" unicode="^" 
d="M688 1294l-426 189l737 1548h492l737 -1548l-426 -189l-557 1139z" />
    <glyph glyph-name="underscore" unicode="_" horiz-adv-x="2040" 
d="M2048 -565h-2048v368h2048v-368z" />
    <glyph glyph-name="grave" unicode="`" horiz-adv-x="1753" 
d="M303 3023l238 418l909 -549l-221 -377z" />
    <glyph glyph-name="a" unicode="a" horiz-adv-x="2753" 
d="M2998 2269l-475 -2269h-500l66 311q-171 -177 -406.5 -281t-453.5 -104q-260 0 -452.5 101t-301.5 284q-147 229 -147 533q0 97 32 295q102 479 467 811q418 393 926 393q234 0 412 -102.5t268 -290.5l66 319h499zM2245 1139q8 49 8 155q0 146 -62.5 264t-180 185
t-273.5 67h-25q-189 0 -360.5 -91t-291 -251t-159.5 -354q-16 -82 -16 -139q0 -221 155.5 -368.5t393.5 -147.5q191 0 363 89.5t290 244.5t158 346z" />
    <glyph glyph-name="b" unicode="b" horiz-adv-x="2753" 
d="M221 0l639 3031h549l-213 -999q98 105 228 175.5t270 103t272 32.5q274 0 481 -126t317.5 -341.5t110.5 -474.5q0 -127 -24 -262q-35 -206 -164 -437t-295 -391q-199 -186 -438 -285.5t-479 -99.5q-514 0 -689 385l-65 -311h-500zM1794 1810q-178 0 -353 -84t-298 -232
t-160 -331q-5 -32 -15 -91.5t-10 -88.5q0 -231 148 -377.5t401 -146.5q186 0 356.5 88.5t288.5 242t158 340.5q17 106 17 156q0 227 -146 375.5t-387 148.5z" />
    <glyph glyph-name="c" unicode="c" horiz-adv-x="2654" 
d="M2007 737h614q-124 -237 -335 -421.5t-465 -287t-502 -102.5q-152 0 -296.5 41.5t-267.5 120.5t-206 182q-221 245 -221 615q0 90 32 270q73 327 295.5 599.5t534.5 430.5t637 158q249 0 463 -105t346.5 -294t148.5 -428h-614q-118 294 -467 294q-190 0 -357.5 -86
t-282.5 -239t-155 -338q-24 -147 -24 -164q0 -233 153 -378.5t404 -145.5q150 0 301.5 76.5t263.5 201.5z" />
    <glyph glyph-name="d" unicode="d" horiz-adv-x="2753" 
d="M3154 3031l-639 -3031h-500l66 311q-168 -186 -393 -285.5t-451 -99.5q-244 0 -432 102.5t-305 282.5q-172 251 -172 557q0 100 32 262q106 487 484 828q193 174 440 279.5t477 105.5q200 0 370.5 -79.5t260.5 -223.5l213 991h549zM2245 1139q8 41 8 139q0 150 -71 271.5
t-196 191t-282 69.5q-173 0 -343 -91t-292.5 -243t-159.5 -321q-16 -98 -16 -156q0 -232 146.5 -386t385.5 -154q280 0 519 201t301 479z" />
    <glyph glyph-name="e" unicode="e" horiz-adv-x="2654" 
d="M2654 893h-1761q20 -197 155.5 -315.5t344.5 -118.5q149 0 304 55t253 141h598q-113 -197 -315.5 -365t-448 -266t-481.5 -98q-279 0 -501.5 121.5t-348 336t-125.5 476.5q0 98 32 262q68 330 286.5 611.5t530 445.5t642.5 164q271 0 485 -126.5t331.5 -343.5t117.5 -472
q0 -118 -25 -246q-10 -59 -29.5 -119.5t-44.5 -142.5zM983 1376h1245q-23 200 -168 317t-356 117q-206 0 -411.5 -119.5t-309.5 -314.5z" />
    <glyph glyph-name="f" unicode="f" horiz-adv-x="1188" 
d="M238 0l376 1786h-196l98 483h197q53 218 185 407.5t321 300.5t411 111l139 -8l-114 -540q-125 0 -195 -16t-120 -73t-87 -182h320l-98 -483h-320l-377 -1786h-540z" />
    <glyph glyph-name="g" unicode="g" horiz-adv-x="2753" 
d="M2482 2269h500l-410 -1925q-37 -181 -98.5 -332.5t-160.5 -287t-240 -256.5q-221 -185 -481.5 -289.5t-510.5 -104.5q-239 0 -447.5 93t-346 265t-172.5 396h622q78 -101 202.5 -161t256.5 -60q140 0 287.5 49.5t261.5 138.5q131 103 188 206.5t140 317.5
q-395 -393 -811 -393q-212 0 -414.5 101.5t-323.5 259.5q-196 247 -196 590q0 77 41 294q98 445 467 787q198 180 445.5 282.5t496.5 102.5q230 0 402 -98t237 -287zM2228 1130q8 50 8 148q0 231 -152.5 381.5t-395.5 150.5q-266 0 -500 -196q-213 -179 -279 -467
q-24 -147 -24 -164q0 -233 153 -378.5t404 -145.5q175 0 343 93t287 248.5t156 329.5z" />
    <glyph glyph-name="h" unicode="h" 
d="M221 0l639 3031h549l-197 -934q110 121 285.5 183.5t345.5 62.5q185 0 349 -81.5t249 -221.5q107 -150 107 -385q0 -168 -58 -426l-254 -1229h-548l229 1114q41 189 41 336q0 360 -352 360q-234 0 -418 -196q-110 -132 -189 -508l-229 -1106h-549z" />
    <glyph glyph-name="i" unicode="i" horiz-adv-x="999" 
d="M221 0l475 2269h549l-475 -2269h-549zM754 2531l106 500h549l-106 -500h-549z" />
    <glyph glyph-name="j" unicode="j" horiz-adv-x="1090" 
d="M770 2269h549l-451 -2130q-86 -428 -352 -663q-262 -238 -598 -238l107 533q87 3 140.5 34t81 80.5t46 123t35.5 147.5zM827 2531l107 500h549l-107 -500h-549z" />
    <glyph glyph-name="k" unicode="k" horiz-adv-x="2376" 
d="M221 0l639 3031h549l-385 -1827l950 1065h639l-1048 -1106l712 -1163h-729l-557 1065l-221 -1065h-549z" />
    <glyph glyph-name="l" unicode="l" horiz-adv-x="999" 
d="M221 0l639 3031h549l-639 -3031h-549z" />
    <glyph glyph-name="m" unicode="m" horiz-adv-x="3842" 
d="M221 0l475 2269h500l-41 -205q101 141 285.5 210t369.5 69q184 0 331 -73.5t218 -205.5q31 -44 41 -73q40 51 74 73q142 136 334 207.5t387 71.5q440 0 631 -279q114 -170 114 -409q0 -162 -41 -377l-270 -1278h-549l254 1212q2 17 17.5 119.5t15.5 159.5q0 96 -25 156
q-29 77 -114 120t-189 43q-246 0 -418 -196q-82 -99 -119 -218.5t-77 -314.5l-230 -1081h-540l254 1212q33 169 33 238q0 113 -33 180q-35 85 -123 132.5t-197 47.5q-200 0 -319 -107t-172 -253.5t-99 -368.5l-229 -1081h-549z" />
    <glyph glyph-name="n" unicode="n" 
d="M221 0l475 2269h508l-41 -205q129 136 310.5 207.5t369.5 71.5q179 0 338.5 -75t251.5 -204q39 -58 41 -65q74 -139 74 -352q0 -157 -66 -467l-246 -1180h-540l221 1073q49 210 49 369q0 106 -24 180q-36 90 -127 139t-201 49q-247 0 -418 -196q-46 -56 -80 -127
t-56 -142t-46.5 -179.5t-30.5 -133.5l-213 -1032h-549z" />
    <glyph glyph-name="o" unicode="o" horiz-adv-x="2654" 
d="M1843 2343q279 0 498 -125.5t340 -344.5t121 -489q0 -126 -25 -254q-72 -327 -294 -605t-534.5 -438.5t-637.5 -160.5q-276 0 -502 126t-353.5 346t-127.5 487q0 83 32 245q51 250 192.5 472t346 389.5t448.5 259.5t496 92zM1704 1810q-129 0 -265.5 -55t-242.5 -149
q-221 -186 -287 -476q-24 -147 -24 -155q0 -144 67 -262t188.5 -186t276.5 -68q187 0 359 88.5t292 242.5t160 340q17 106 17 148q0 231 -151.5 381.5t-389.5 150.5z" />
    <glyph glyph-name="p" unicode="p" horiz-adv-x="2753" 
d="M57 -762l639 3031h500l-57 -295q333 369 811 369q254 0 437 -88t316 -281q156 -214 156 -557q0 -146 -25 -278q-69 -322 -275 -601.5t-500.5 -445.5t-616.5 -166q-433 0 -623 320l-213 -1008h-549zM1778 1810q-187 0 -355.5 -88.5t-288 -242.5t-159.5 -340
q-25 -153 -25 -172q0 -192 131 -336q69 -75 174 -123.5t220 -48.5q189 0 362.5 91t295 247.5t161.5 341.5q8 41 8 131q0 145 -65 270.5t-185 197.5t-274 72z" />
    <glyph glyph-name="q" unicode="q" horiz-adv-x="2753" 
d="M2482 2269h500l-639 -3031h-549l213 1008q-332 -320 -754 -320q-207 0 -379.5 75t-295 209t-186.5 310t-64 373q0 98 32 262q115 482 517 819q406 369 876 369q510 0 672 -369zM1720 1810q-186 0 -358.5 -86.5t-292.5 -239t-160 -337.5q-7 -43 -11.5 -69t-8.5 -57t-4 -46
q0 -151 67.5 -268.5t191 -182.5t290.5 -65q179 0 348.5 93.5t289 251t156.5 335.5q8 41 8 131q0 148 -64 271.5t-182.5 196t-269.5 72.5z" />
    <glyph glyph-name="r" unicode="r" horiz-adv-x="1327" 
d="M221 0l475 2269h500l-41 -205q232 279 549 279h41l-107 -524q-179 0 -352 -107q-123 -89 -177.5 -202t-84.5 -281l-254 -1229h-549z" />
    <glyph glyph-name="s" unicode="s" horiz-adv-x="1802" 
d="M2007 1647h-532v8q0 68 -52.5 111.5t-128.5 43.5q-90 0 -159 -49t-86 -139q0 -6 -4.5 -21.5t-4.5 -19.5q0 -79 69.5 -112t201.5 -68q272 -93 422.5 -209.5t150.5 -331.5q0 -49 -16 -147q-79 -341 -344 -549q-140 -107 -312 -172.5t-327 -65.5q-301 0 -486.5 171
t-185.5 452q0 66 16 164h557l-8 -25q0 -97 63.5 -163t174.5 -66q106 0 193 58t110 163v41q0 96 -90 151t-230 103q-144 44 -215.5 79.5t-152.5 116.5q-139 141 -139 328q0 48 16 148q44 203 182.5 362t333 246.5t393.5 87.5q161 0 298.5 -74.5t218.5 -207t81 -292.5
q0 -81 -8 -122z" />
    <glyph glyph-name="t" unicode="t" horiz-adv-x="1237" 
d="M303 0l377 1786h-262l98 483h262l164 762h549l-164 -762h328l-99 -483h-327l-377 -1786h-549z" />
    <glyph glyph-name="u" unicode="u" 
d="M2171 2269h549l-475 -2269h-500l49 246q-249 -320 -655 -320q-205 0 -374.5 82t-272.5 238q-123 159 -123 360q0 86 57 385l270 1278h549l-237 -1114q-17 -83 -26 -128.5t-16.5 -100.5t-7.5 -99q0 -28 25 -131q32 -111 120.5 -174t215.5 -63q472 0 614 696z" />
    <glyph glyph-name="v" unicode="v" horiz-adv-x="2228" 
d="M926 0l-443 2269h607l213 -1491l835 1491h606l-1392 -2269h-426z" />
    <glyph glyph-name="w" unicode="w" horiz-adv-x="3178" 
d="M860 0l-344 2269h582l123 -1384l671 1384h426l82 -1384l713 1384h582l-1303 -2269h-336l-114 1475l-746 -1475h-336z" />
    <glyph glyph-name="x" unicode="x" horiz-adv-x="2277" 
d="M8 0l1049 1171l-475 1098h630l271 -622l516 622h631l-926 -1098l565 -1171h-672l-303 737l-614 -737h-672z" />
    <glyph glyph-name="y" unicode="y" horiz-adv-x="2277" 
d="M279 -762l622 975l-401 2056h622l213 -1450l852 1450h615l-1942 -3031h-581z" />
    <glyph glyph-name="z" unicode="z" horiz-adv-x="1901" 
d="M82 0l98 483l1286 1303h-893l99 483h1548l-98 -483l-1286 -1303h1073l-99 -483h-1728z" />
    <glyph glyph-name="braceleft" unicode="{" horiz-adv-x="1425" 
d="M1065 737l-172 -786q-4 -31 -14.5 -83t-10.5 -81q0 -227 254 -311h-131q-273 0 -418 106q-114 82 -114 246q0 31 15.5 108t17.5 97l172 778q16 114 16 147q0 103 -41 164q-76 115 -221 140q144 28 237 98q94 66 130.5 144.5t66.5 215.5l147 688q36 171 80 283t142 193
q179 139 508 139h147q-190 -48 -288.5 -162t-137.5 -305l-156 -729q-54 -247 -155 -380t-336 -185q287 -55 287 -320q0 -38 -11.5 -113.5t-13.5 -91.5z" />
    <glyph glyph-name="bar" unicode="|" 
d="M999 0v3031h484v-3031h-484z" />
    <glyph glyph-name="braceright" unicode="}" horiz-adv-x="1425" 
d="M868 1827l156 729q16 98 16 147q0 250 -245 320h139q340 0 450 -139q66 -77 66 -230q0 -87 -33 -246l-147 -688q-5 -36 -19 -98.5t-14 -89.5q0 -102 82 -172q73 -73 188 -98q-142 -25 -270 -140q-77 -72 -104.5 -133.5t-51.5 -177.5l-172 -778q-28 -156 -85 -265.5
t-177 -185.5q-203 -106 -483 -106h-123q201 59 291.5 165t134.5 310l172 786q46 229 149 353.5t326 171.5q-287 69 -287 319q0 36 41 246z" />
    <glyph glyph-name="asciitilde" unicode="~" 
d="M2376 1729l196 -304q-190 -232 -338.5 -353.5t-349.5 -121.5q-142 0 -352 99l-156 65q-115 59 -169.5 83t-125.5 24q-67 0 -126 -30.5t-108 -78.5t-97.5 -108.5t-94.5 -118.5l-196 303q165 221 340.5 364.5t371.5 143.5q130 0 215 -35t299.5 -135.5t288.5 -100.5
q62 0 116.5 28t103 73t98 103.5t84.5 99.5z" />
    <glyph glyph-name="nonbreakingspace" unicode="&#xa0;" horiz-adv-x="1753" 
 />
    <glyph glyph-name="exclamdown" unicode="&#xa1;" horiz-adv-x="2515" 
d="M1139 0h-590l696 1008l-590 2023h615l377 -1450l942 1450h614zM1303 3359l106 516h1327l-106 -516h-1327z" />
    <glyph glyph-name="cent" unicode="&#xa2;" horiz-adv-x="2277" 
d="M279 -762l622 975l-401 2056h622l213 -1450l852 1450h615l-1942 -3031h-581zM1212 2556l99 467h1073l-98 -467h-1074z" />
    <glyph glyph-name="sterling" unicode="&#xa3;" horiz-adv-x="1950" 
d="M1778 3031h557l-451 -2138q-42 -201 -98.5 -338t-179.5 -276q-146 -166 -341 -259.5t-397 -93.5q-193 0 -351.5 77t-251.5 218t-93 320q0 57 16 155h557q0 -204 213 -204q284 0 361 368z" />
    <glyph glyph-name="currency" unicode="&#xa4;" horiz-adv-x="2327" 
d="M115 934l180 180q-81 142 -118.5 260t-37.5 264q0 294 156 533l-180 180l319 328l180 -180q269 155 533 155q290 0 549 -155l180 180l311 -328l-180 -180q156 -239 156 -533q0 -308 -156 -524l180 -180l-311 -328l-180 180q-259 -155 -533 -155q-309 0 -549 155
l-180 -180zM1155 1139q139 0 253.5 69t180.5 184.5t66 245.5q0 135 -65.5 252t-180.5 186.5t-254 69.5q-140 0 -256.5 -70t-184 -187t-67.5 -251q0 -130 67.5 -245t184 -184.5t256.5 -69.5z" />
    <glyph glyph-name="yen" unicode="&#xa5;" horiz-adv-x="1991" 
d="M279 0l639 3031h1064l123 573h566l-238 -1122h-1065l-524 -2482h-565z" />
    <glyph glyph-name="brokenbar" unicode="&#xa6;" 
d="M999 0v1212h484v-1212h-484zM999 1819v1212h484v-1212h-484z" />
    <glyph glyph-name="section" unicode="&#xa7;" horiz-adv-x="2327" 
d="M2548 2376h-516v41q0 115 -85 172t-218 57q-120 0 -211 -45.5t-109 -151.5q0 -3 -4 -24t-4 -25q0 -80 65 -138.5t172 -123.5l525 -295q175 -94 237 -229q41 -108 41 -230q0 -90 -8 -131q-35 -168 -154 -320t-288 -253q114 -153 114 -336q0 -58 -16 -172
q-52 -232 -213 -403.5t-382 -261t-445 -89.5t-402 83.5t-277.5 237.5t-99.5 359q0 36 10.5 98t14.5 91h541q-17 -62 -17 -107q0 -119 93 -190.5t227 -71.5h24q129 0 256 66t154 188v49q0 96 -60 149.5t-194 137.5l-533 311q-335 189 -335 492q0 29 11.5 95.5t12.5 76.5
q85 380 459 598q-57 142 -57 254q0 16 8 63t8 68q50 222 199.5 376t353 229t422.5 75q211 0 366.5 -75t238.5 -217t83 -331q0 -20 -4 -71t-4 -76zM1188 1237l516 -295q193 104 229 262v33q0 80 -61 131.5t-168 114.5l-516 295q-82 -48 -149.5 -120.5t-80.5 -141.5
q0 -5 -4 -21t-4 -20q0 -40 23 -74.5t63 -66.5t75.5 -52.5t76.5 -44.5z" />
    <glyph glyph-name="dieresis" unicode="&#xa8;" horiz-adv-x="2089" 
d="M279 0l639 3031h1630l-115 -549h-1065l-147 -696h1015l-114 -541h-1016l-148 -696h1065l-114 -549h-1630zM1090 3260l114 549h549l-115 -549h-548zM1950 3260l114 549h549l-114 -549h-549z" />
    <glyph glyph-name="copyright" unicode="&#xa9;" horiz-adv-x="3031" 
d="M1532 -74q-429 0 -793 211.5t-576 576.5t-212 793q0 324 122 613.5t341 507.5t507 339t611 121q320 0 608 -121t508 -339.5t342.5 -507t122.5 -613.5q0 -428 -213.5 -792.5t-578 -576.5t-789.5 -212zM1532 221q346 0 642 172.5t470 468.5t174 645t-174 645t-470 468.5
t-642 172.5q-350 0 -645.5 -172.5t-468 -468t-172.5 -645.5t172.5 -645.5t468 -468t645.5 -172.5zM1982 1221h353q-29 -273 -240 -440t-489 -167q-260 0 -460 118.5t-308.5 327t-108.5 464.5q0 258 104.5 465t300 325.5t455.5 118.5q294 0 495.5 -159t250.5 -439h-353
q-29 146 -135 228.5t-258 82.5q-165 0 -279.5 -85.5t-171.5 -226t-57 -302.5q0 -246 143.5 -438.5t381.5 -192.5q139 0 251.5 91.5t124.5 228.5z" />
    <glyph glyph-name="ordfeminine" unicode="&#xaa;" horiz-adv-x="3416" 
d="M2662 827h648q-127 -203 -306.5 -368t-396.5 -286t-443.5 -184t-443.5 -63q-368 0 -659.5 166.5t-455 456.5t-163.5 639q0 54 41 328q88 420 378.5 783t695 576t819.5 213q227 0 433 -64t371 -183.5t278.5 -294t154.5 -383.5h-639q-106 173 -300 275t-421 102
q-165 0 -324.5 -54t-306.5 -153.5t-264.5 -231t-202.5 -291.5h1376l-106 -532h-1393q0 -219 103 -403t286 -292t406 -108q430 0 835 352z" />
    <glyph glyph-name="guillemotleft" unicode="&#xab;" horiz-adv-x="1802" 
d="M1704 557l-451 541l90 409l672 533l-106 -500l-320 -237l221 -238zM836 557l-459 541l90 409l680 533l-107 -500l-327 -237l229 -238z" />
    <glyph glyph-name="logicalnot" unicode="&#xac;" 
d="M1794 745v713h-1581v484h2064v-1197h-483z" />
    <glyph glyph-name="uni00AD" unicode="&#xad;" horiz-adv-x="1753" 
d="M303 1065v483h1139v-483h-1139z" />
    <glyph glyph-name="registered" unicode="&#xae;" horiz-adv-x="3031" 
d="M1532 -74q-429 0 -793 211.5t-576 576.5t-212 793q0 324 122 613.5t341 507.5t507 339t611 121q320 0 608 -121t508 -339.5t342.5 -507t122.5 -613.5q0 -428 -213.5 -792.5t-578 -576.5t-789.5 -212zM1532 221q346 0 642 172.5t470 468.5t174 645t-174 645t-470 468.5
t-642 172.5q-350 0 -645.5 -172.5t-468 -468t-172.5 -645.5t172.5 -645.5t468 -468t645.5 -172.5zM1901 1368l417 -721h-385l-385 721h-336v-721h-327v1704h819q336 0 467 -82q196 -131 196 -442q0 -226 -115.5 -332.5t-350.5 -126.5zM1212 1622h508q154 0 233 53t79 201
q0 151 -109.5 190t-292.5 39h-418v-483z" />
    <glyph glyph-name="macron" unicode="&#xaf;" horiz-adv-x="1425" 
d="M713 3260l114 549h549l-114 -549h-549zM1573 3260l115 549h548l-114 -549h-549zM442 0l639 3031h566l-639 -3031h-566z" />
    <glyph glyph-name="degree" unicode="&#xb0;" horiz-adv-x="1663" 
d="M1434 2417q0 -167 -83.5 -309.5t-225 -224t-306.5 -81.5t-306.5 82t-224.5 224t-83 309q0 164 83 306t225 225t306 83t306 -83t225.5 -225t83.5 -306zM1188 2417q0 98 -49.5 182.5t-134.5 135t-185 50.5t-184.5 -50.5t-134 -135.5t-49.5 -182q0 -154 107.5 -261.5
t260.5 -107.5q102 0 186.5 49t133.5 133.5t49 186.5z" />
    <glyph glyph-name="plusminus" unicode="&#xb1;" 
d="M1008 1778v557h475v-557h794v-475h-794v-590h-475v590h-795v475h795zM213 0v475h2064v-475h-2064z" />
    <glyph glyph-name="twosuperior" unicode="&#xb2;" horiz-adv-x="1139" 
d="M279 0l639 3031h565l-639 -3031h-565z" />
    <glyph glyph-name="threesuperior" unicode="&#xb3;" horiz-adv-x="999" 
d="M221 0l475 2269h549l-475 -2269h-549zM754 2531l106 500h549l-106 -500h-549z" />
    <glyph glyph-name="acute" unicode="&#xb4;" horiz-adv-x="1663" 
d="M221 0l475 2269h820l114 533h549l-213 -1016h-819l-377 -1786h-549z" />
    <glyph glyph-name="mu" unicode="&#xb5;" horiz-adv-x="2376" 
d="M2245 0h-500v246h-8q-167 -320 -582 -320q-208 0 -385 82v-770h-549v3031h549v-1114q0 -328 66 -459q56 -111 161 -174t232 -63q275 0 371 196t96 500v1114h549v-2269z" />
    <glyph glyph-name="paragraph" unicode="&#xb6;" 
d="M1401 2589v-3113h-410v1876l-16 -9q-221 0 -409 116t-299 312t-111 416q0 388 286 639q151 129 299.5 163t397.5 34h1024v-3547h-426v3113h-336z" />
    <glyph glyph-name="periodcentered" unicode="&#xb7;" horiz-adv-x="1188" 
d="M295 1032v541h549v-541h-549z" />
    <glyph glyph-name="cedilla" unicode="&#xb8;" horiz-adv-x="2654" 
d="M2654 893h-1761q20 -197 155.5 -315.5t344.5 -118.5q149 0 304 55t253 141h598q-113 -197 -315.5 -365t-448 -266t-481.5 -98q-279 0 -501.5 121.5t-348 336t-125.5 476.5q0 98 32 262q68 330 286.5 611.5t530 445.5t642.5 164q271 0 485 -126.5t331.5 -343.5t117.5 -472
q0 -118 -25 -246q-10 -59 -29.5 -119.5t-44.5 -142.5zM983 1376h1245q-23 200 -168 317t-356 117q-206 0 -411.5 -119.5t-309.5 -314.5zM1212 2580l123 549h549l-123 -549h-549zM2073 2580l122 549h549l-123 -549h-548z" />
    <glyph glyph-name="onesuperior" unicode="&#xb9;" horiz-adv-x="4121" 
d="M279 0l639 3031h630l582 -2056l434 2056h565l-639 -3031h-622l-598 2023l-426 -2023h-565zM3727 1802q149 0 264.5 -64t179.5 -179.5t64 -255.5q0 -91 -8 -132q-37 -174 -150.5 -318t-277 -228t-334.5 -84q-214 0 -361 144.5t-147 354.5q0 44 17 131q36 170 150 315.5
t275 230.5t328 85zM3670 1524q-139 0 -258.5 -104t-151.5 -249q0 -12 -8 -43t-8 -38q0 -112 81.5 -191.5t197.5 -79.5q152 0 274 102t152 250v74q0 118 -78.5 198.5t-200.5 80.5zM2728 8l57 262h1254l-58 -262h-1253z" />
    <glyph glyph-name="ordmasculine" unicode="&#xba;" horiz-adv-x="2605" 
d="M918 893q24 -198 166 -316t366 -118q150 0 301.5 76.5t263.5 201.5h615q-124 -237 -335 -421.5t-466 -287t-502 -102.5q-152 0 -296.5 41.5t-267.5 120.5t-206 182q-221 247 -221 615q0 95 33 270q73 326 295 599t534 431t637 158q249 0 463 -105t346.5 -294t148.5 -428
h-614q-118 294 -467 294q-148 0 -283.5 -55t-243 -153t-177.5 -226h835l-98 -483h-827z" />
    <glyph glyph-name="guillemotright" unicode="&#xbb;" horiz-adv-x="2089" 
d="M418 557l106 508l328 238l-229 237l106 500l459 -533l-90 -409zM1286 557l107 508l327 238l-229 237l106 500l467 -533l-90 -409z" />
    <glyph glyph-name="onequarter" unicode="&#xbc;" horiz-adv-x="3465" 
d="M770 2269h549l-451 -2130q-86 -428 -352 -663q-262 -238 -598 -238l107 533q87 3 140.5 34t81 80.5t46 123t35.5 147.5zM827 2531l107 500h549l-107 -500h-549z" />
    <glyph glyph-name="onehalf" unicode="&#xbd;" horiz-adv-x="2089" 
d="M238 852h589q0 -13 -8 -46t-8 -44q0 -131 102.5 -209t249.5 -78q163 0 301 107t174 270q0 18 4.5 50t4.5 48q0 170 -117 262.5t-309 155.5q-184 65 -288 120.5t-179 158.5q-131 169 -131 417q0 66 16 164q51 239 216 437t396 310.5t469 112.5q198 0 361 -91t257.5 -248.5
t94.5 -348.5q0 -56 -16 -172h-582v49q0 115 -79 189t-191 74q-137 0 -237 -90.5t-132 -229.5q0 -7 -4 -36t-4 -38q0 -109 85 -172.5t234 -122.5q213 -77 323.5 -129.5t201.5 -148.5q196 -184 196 -475q0 -103 -24 -213q-56 -265 -235.5 -485.5t-431.5 -347t-513 -126.5
q-223 0 -409.5 96t-294 265.5t-107.5 376.5q0 30 25 188z" />
    <glyph glyph-name="threequarters" unicode="&#xbe;" horiz-adv-x="1802" 
d="M2007 1647h-532v8q0 68 -52.5 111.5t-128.5 43.5q-90 0 -159 -49t-86 -139q0 -6 -4.5 -21.5t-4.5 -19.5q0 -79 69.5 -112t201.5 -68q272 -93 422.5 -209.5t150.5 -331.5q0 -49 -16 -147q-79 -341 -344 -549q-140 -107 -312 -172.5t-327 -65.5q-301 0 -486.5 171
t-185.5 452q0 66 16 164h557l-8 -25q0 -97 63.5 -163t174.5 -66q106 0 193 58t110 163v41q0 96 -90 151t-230 103q-144 44 -215.5 79.5t-152.5 116.5q-139 141 -139 328q0 48 16 148q44 203 182.5 362t333 246.5t393.5 87.5q161 0 298.5 -74.5t218.5 -207t81 -292.5
q0 -81 -8 -122z" />
    <glyph glyph-name="questiondown" unicode="&#xbf;" horiz-adv-x="1376" 
d="M492 3031h548l-106 -516h-549zM1303 3031h548l-106 -516h-549zM721 2261h549l-475 -2261h-549z" />
    <glyph glyph-name="Agrave" unicode="&#xc0;" horiz-adv-x="2843" 
d="M-74 0l1901 3031h434l639 -3031h-623l-163 786h-1074l-499 -786h-615zM1360 1327h647l-123 918z" />
    <glyph glyph-name="Aacute" unicode="&#xc1;" 
d="M279 0l639 3031h1810l-115 -549h-1245l-131 -598h254q257 0 442 -36.5t295 -151.5q108 -102 164.5 -251t56.5 -315q0 -74 -16 -204q-50 -229 -201 -434.5t-364 -327.5q-177 -106 -353.5 -135t-424.5 -29h-811zM958 549h123q15 0 62 -4t69 -4q123 0 287 32
q139 33 243.5 129.5t133.5 231.5v74q0 107 -54 186.5t-151 108.5q-109 32 -303 32h-246z" />
    <glyph glyph-name="Acircumflex" unicode="&#xc2;" horiz-adv-x="2515" 
d="M279 0l639 3031h638q228 0 398.5 -22t298.5 -93q134 -79 214.5 -230.5t80.5 -318.5q0 -90 -8 -131q-46 -188 -168.5 -346.5t-298.5 -234.5q185 -60 285 -210.5t100 -346.5q0 -51 -17 -172q-48 -219 -184.5 -405t-339.5 -316q-185 -120 -390.5 -158.5t-486.5 -46.5h-761z
M958 549h230q151 0 264 20.5t227 85.5q170 105 205 295q0 14 4 41t4 33q0 143 -147 238q-95 57 -303 57h-320zM1237 1868h106q12 0 45 -4t46 -4q173 0 295 49q84 37 147.5 114.5t81.5 163.5v58q0 70 -35.5 129.5t-95.5 83.5q-41 24 -172 24h-287z" />
    <glyph glyph-name="Atilde" unicode="&#xc3;" horiz-adv-x="1950" 
d="M279 0l639 3031h1630l-115 -549h-1065l-524 -2482h-565z" />
    <glyph glyph-name="Adieresis" unicode="&#xc4;" horiz-adv-x="3031" 
d="M369 549l1564 2482h443l516 -2482h303l-238 -1122h-565l123 573h-1999l-123 -573h-557l230 1122h303zM1991 2245l-1000 -1696h1278z" />
    <glyph glyph-name="Aring" unicode="&#xc5;" horiz-adv-x="2179" 
d="M279 0l639 3031h1630l-115 -549h-1065l-147 -696h1015l-114 -541h-1016l-148 -696h1065l-114 -549h-1630z" />
    <glyph glyph-name="AE" unicode="&#xc6;" horiz-adv-x="3604" 
d="M1516 0l278 1327l-1089 -1327h-648l1311 1532l-663 1499h638l525 -1335l286 1335h566l-287 -1335l1098 1335h639l-1303 -1499l672 -1532h-647l-533 1327l-278 -1327h-565z" />
    <glyph glyph-name="Ccedilla" unicode="&#xc7;" horiz-adv-x="2654" 
d="M1475 1819h65q181 0 344 65q115 67 178.5 144.5t91.5 207.5v25q0 93 -92 186t-219 93q-175 0 -315.5 -123t-184.5 -303h-548q59 220 166.5 397t260 305t341 196t403.5 68q203 0 372.5 -87t267 -244t97.5 -357q0 -66 -16 -180q-90 -426 -508 -615q336 -137 336 -548
q0 -65 -16 -197q-55 -265 -245.5 -477.5t-457 -330.5t-534.5 -118q-233 0 -421 104t-293.5 286t-105.5 405q0 59 17 180h549q0 -16 -4.5 -42.5t-4.5 -39.5q0 -152 117.5 -256t284.5 -104q190 0 354 102t203 291q0 18 4 49t4 41q0 155 -139 279q-117 98 -402 98h-57z" />
    <glyph glyph-name="Egrave" unicode="&#xc8;" horiz-adv-x="3031" 
d="M2736 0h-565l467 2204l-1737 -2204h-622l639 3031h565l-467 -2212l1728 2212h631z" />
    <glyph glyph-name="Eacute" unicode="&#xc9;" horiz-adv-x="3031" 
d="M2736 0h-565l467 2204l-1737 -2204h-622l639 3031h565l-467 -2212l1728 2212h631zM1556 3359l107 516h1327l-106 -516h-1328z" />
    <glyph glyph-name="Ecircumflex" unicode="&#xca;" horiz-adv-x="2564" 
d="M279 0l639 3031h565l-279 -1311l1221 1311h672l-1467 -1491l828 -1540h-672l-664 1327l-278 -1327h-565z" />
    <glyph glyph-name="Edieresis" unicode="&#xcb;" horiz-adv-x="2703" 
d="M1769 3031h459l533 -3031h-590l-328 2302l-1302 -2302h-590z" />
    <glyph glyph-name="Igrave" unicode="&#xcc;" horiz-adv-x="3744" 
d="M279 0l639 3031h770l319 -2318l1311 2318h762l-639 -3031h-557l475 2269l-1262 -2269h-475l-303 2269l-475 -2269h-565z" />
    <glyph glyph-name="Iacute" unicode="&#xcd;" horiz-adv-x="2753" 
d="M279 0l639 3031h565l-254 -1212h1081l254 1212h557l-639 -3031h-557l262 1270h-1081l-262 -1270h-565z" />
    <glyph glyph-name="Icircumflex" unicode="&#xce;" horiz-adv-x="3416" 
d="M2359 3088q363 0 652.5 -163.5t449.5 -451t160 -638.5q0 -184 -33 -336q-89 -430 -376 -791t-694.5 -571.5t-829.5 -210.5q-367 0 -663.5 163t-464 450t-167.5 641q0 47 41 319q93 435 383.5 800t701.5 577t840 212zM2236 2540q-275 0 -538.5 -137.5t-448.5 -373.5
t-241 -513q-25 -206 -25 -222q0 -226 104 -414.5t291.5 -296.5t423.5 -108q269 0 533 141.5t453.5 381t250.5 518.5q17 138 17 204q0 174 -58.5 323t-168 261t-260.5 174t-333 62z" />
    <glyph glyph-name="Idieresis" unicode="&#xcf;" horiz-adv-x="2753" 
d="M3121 3031l-639 -3031h-557l524 2482h-1081l-524 -2482h-565l639 3031h2203z" />
    <glyph glyph-name="Eth" unicode="&#xd0;" horiz-adv-x="2327" 
d="M844 0h-565l639 3031h786q161 0 278.5 -10t231.5 -46.5t203 -107.5q120 -89 187 -242.5t67 -322.5q0 -57 -17 -197q-34 -150 -104 -290t-176 -262.5t-244 -217.5q-168 -117 -369.5 -156.5t-449.5 -39.5q-21 0 -62 4t-61 4h-107zM1196 1696h98q15 0 58 -4t65 -4
q158 0 320 41q135 37 232.5 137t127.5 231q0 13 4 41t4 41q0 103 -64 179t-165 100q-111 24 -279 24h-229z" />
    <glyph glyph-name="Ntilde" unicode="&#xd1;" horiz-adv-x="3318" 
d="M2621 827h648q-127 -203 -306.5 -368t-396.5 -286t-443.5 -184t-443.5 -63q-368 0 -659.5 166.5t-455 456.5t-163.5 639q0 54 41 328q88 420 378.5 783t695 576t819.5 213q227 0 433 -64t371 -183.5t278.5 -294t154.5 -383.5h-639q-106 173 -300 275t-421 102
q-270 0 -527.5 -141.5t-441.5 -382t-244 -517.5q-7 -50 -12 -82t-8.5 -68.5t-3.5 -54.5q0 -222 106 -411t292 -298.5t413 -109.5q430 0 835 352z" />
    <glyph glyph-name="Ograve" unicode="&#xd2;" horiz-adv-x="1712" 
d="M590 0l524 2482h-557l115 549h1679l-115 -549h-565l-524 -2482h-557z" />
    <glyph glyph-name="Oacute" unicode="&#xd3;" horiz-adv-x="2515" 
d="M1139 0h-590l696 1008l-590 2023h615l377 -1450l942 1450h614z" />
    <glyph glyph-name="Ocircumflex" unicode="&#xd4;" horiz-adv-x="3465" 
d="M2654 3031l-65 -295h123q280 0 498.5 -126t339 -344.5t120.5 -487.5q0 -133 -25 -254q-68 -329 -290.5 -606.5t-536 -438t-639.5 -160.5h-98l-66 -319h-565l66 319h-99q-282 0 -508.5 123t-354.5 340.5t-128 487.5q0 95 33 254q68 327 285 605.5t525.5 442.5t631.5 164
h122l66 295h565zM1630 852l287 1352h-98q-186 0 -357 -90.5t-292.5 -247.5t-161.5 -342q-25 -136 -25 -156q0 -223 153 -369.5t396 -146.5h98zM2195 852h99q186 0 356.5 88.5t288.5 243t158 340.5q16 98 16 147q0 227 -148.5 380t-384.5 153h-98z" />
    <glyph glyph-name="Otilde" unicode="&#xd5;" horiz-adv-x="2802" 
d="M25 0l1359 1507l-720 1524h655l491 -1040l943 1040h655l-1368 -1524l729 -1507h-655l-508 1032l-926 -1032h-655z" />
    <glyph glyph-name="Odieresis" unicode="&#xd6;" horiz-adv-x="2941" 
d="M2310 0h-2031l639 3031h565l-525 -2482h1082l524 2482h557l-524 -2482h393l-237 -1122h-566z" />
    <glyph glyph-name="multiply" unicode="&#xd7;" horiz-adv-x="2703" 
d="M1196 1950q0 -9 -4 -38t-4 -36q0 -113 83.5 -183.5t203.5 -70.5h737l295 1409h557l-639 -3031h-557l221 1073h-934q-164 0 -299 66t-213 185t-78 265q0 54 17 131l278 1311h565z" />
    <glyph glyph-name="Oslash" unicode="&#xd8;" horiz-adv-x="4030" 
d="M3744 0h-3465l639 3031h565l-525 -2482h902l524 2482h557l-524 -2482h884l525 2482h557z" />
    <glyph glyph-name="Ugrave" unicode="&#xd9;" horiz-adv-x="4219" 
d="M3572 0h-3293l639 3031h565l-525 -2482h902l524 2482h557l-524 -2482h884l525 2482h557l-525 -2482h394l-238 -1122h-565z" />
    <glyph glyph-name="Uacute" unicode="&#xda;" horiz-adv-x="2703" 
d="M672 3031h1122l-246 -1147h230q257 0 442 -36.5t295 -151.5q108 -102 164.5 -251t56.5 -315q0 -74 -16 -204q-50 -229 -201 -434.5t-365 -327.5q-177 -106 -353.5 -135t-424.5 -29h-786l524 2482h-557zM1434 1335l-164 -786h98q15 0 62 -4t69 -4q123 0 287 32
q139 33 243.5 129.5t133.5 231.5v74q0 107 -54 186.5t-151 108.5q-109 32 -303 32h-221z" />
    <glyph glyph-name="Ucircumflex" unicode="&#xdb;" horiz-adv-x="3318" 
d="M1483 3031l-246 -1147h229q258 0 443 -36.5t295 -151.5q108 -102 164.5 -251t56.5 -315q0 -81 -17 -204q-48 -228 -199.5 -434t-365.5 -328q-177 -106 -353.5 -135t-424.5 -29h-786l639 3031h565zM1122 1335l-164 -786h99q15 0 62 -4t69 -4q123 0 287 32
q140 33 243.5 128.5t132.5 232.5v74q0 107 -53 186t-151 109q-109 32 -304 32h-221zM2458 0l639 3031h565l-639 -3031h-565z" />
    <glyph glyph-name="Udieresis" unicode="&#xdc;" horiz-adv-x="2417" 
d="M1483 3031l-246 -1147h229q258 0 443 -36.5t295 -151.5q108 -102 164.5 -251t56.5 -315q0 -81 -17 -204q-48 -228 -199.5 -434t-365.5 -328q-177 -106 -353.5 -135t-424.5 -29h-786l639 3031h565zM1122 1335l-164 -786h99q15 0 62 -4t69 -4q123 0 287 32
q140 33 243.5 128.5t132.5 232.5v74q0 107 -53 186t-151 109q-109 32 -304 32h-221z" />
    <glyph glyph-name="Yacute" unicode="&#xdd;" horiz-adv-x="3367" 
d="M1032 827q248 -352 688 -352q222 0 450 108t410 291.5t279 403.5h-1393l107 532h1376q-21 210 -124 375.5t-274 260t-388 94.5q-225 0 -457.5 -102t-411.5 -275h-639q168 279 435 489.5t580 323t616 112.5q270 0 500.5 -95t398.5 -265.5t261 -401.5t93 -491
q0 -113 -33 -319q-67 -319 -248.5 -607t-447.5 -511t-581 -347.5t-632 -124.5q-217 0 -416 62.5t-364.5 183t-277 287.5t-154.5 368h647z" />
    <glyph glyph-name="Thorn" unicode="&#xde;" horiz-adv-x="4743" 
d="M1671 1270h-565l-262 -1270h-565l639 3031h565l-254 -1212h573q112 270 304 504t436.5 405t524 265.5t562.5 94.5q363 0 652.5 -163.5t449.5 -451t160 -638.5q0 -178 -33 -336q-88 -428 -376.5 -790t-695.5 -572.5t-829 -210.5q-362 0 -659 159.5t-466 439.5t-169 622
q0 16 4 61t4 62zM3506 2540q-275 0 -538.5 -137.5t-449 -373t-241.5 -513.5q-6 -50 -11.5 -88.5t-9 -75t-3.5 -58.5q0 -226 104 -414.5t291.5 -296.5t423.5 -108q269 0 533 141.5t453.5 381t250.5 518.5q16 130 16 204q0 174 -58.5 323t-167 261t-260 174t-333.5 62z" />
    <glyph glyph-name="germandbls" unicode="&#xdf;" 
d="M2163 0h-566l246 1163l-1040 -1163h-688l1056 1122q-321 67 -483 287q-131 184 -131 467q0 36 25 197q34 142 105.5 279t176 257t234.5 209q181 126 368 165.5t459 47.5h877zM1933 1589l189 893h-393q-198 0 -361 -98q-182 -121 -238 -344q0 -13 -8 -50t-8 -48
q0 -109 90 -230q104 -123 426 -123h303z" />
    <glyph glyph-name="agrave" unicode="&#xe0;" horiz-adv-x="2753" 
d="M2998 2269l-475 -2269h-500l66 311q-171 -177 -406.5 -281t-453.5 -104q-260 0 -452.5 101t-301.5 284q-147 229 -147 533q0 97 32 295q102 479 467 811q418 393 926 393q234 0 412 -102.5t268 -290.5l66 319h499zM2245 1139q8 49 8 155q0 146 -62.5 264t-180 185
t-273.5 67h-25q-189 0 -360.5 -91t-291 -251t-159.5 -354q-16 -82 -16 -139q0 -221 155.5 -368.5t393.5 -147.5q191 0 363 89.5t290 244.5t158 346z" />
    <glyph glyph-name="aacute" unicode="&#xe1;" horiz-adv-x="2753" 
d="M1974 2695q-130 0 -278.5 -62t-270.5 -159q-139 -111 -213 -232t-114 -292q393 393 811 393h16q223 0 414 -102t307 -259q180 -227 180 -598q0 -151 -24 -286q-100 -445 -467 -787q-209 -183 -451.5 -284t-490.5 -101q-600 12 -836 377q-172 260 -172 516q0 31 41 303
l164 803q65 281 180 487t328 390q226 188 480 290.5t503 102.5h868l-106 -500h-869zM942 1155q-16 -98 -16 -156q0 -232 145.5 -386t386.5 -154q290 0 524 196q213 179 279 467q16 98 16 148q0 154 -69 277.5t-196.5 193t-291.5 69.5q-176 0 -340 -89.5t-281 -240.5
t-157 -325z" />
    <glyph glyph-name="acircumflex" unicode="&#xe2;" horiz-adv-x="2138" 
d="M1450 2269q204 0 305 -13t195 -61q93 -46 177.5 -176t84.5 -258q0 -11 -4 -36t-4 -37q-44 -180 -126 -290.5t-227 -176.5q246 -111 246 -394q0 -57 -16 -155q-68 -331 -434 -533q-158 -89 -305 -114t-375 -25h-746l475 2269h754zM852 459h115q318 0 393 33
q167 62 205 213v40q0 65 -37 112.5t-78 60.5q-76 32 -328 32h-164zM1049 1376h81q10 0 47 -4t60 -4q143 0 254 33q147 57 172 196v41q0 130 -115 164q-104 17 -172 17q-34 0 -82.5 -4.5t-72.5 -4.5h-82z" />
    <glyph glyph-name="atilde" unicode="&#xe3;" horiz-adv-x="1614" 
d="M221 0l475 2269h1368l-98 -483h-819l-377 -1786h-549z" />
    <glyph glyph-name="adieresis" unicode="&#xe4;" horiz-adv-x="2327" 
d="M1417 2269h426l344 -1786h238l-213 -1015h-549l115 532h-1246l-114 -532h-541l205 1015h237zM1466 1491l-565 -1008h705z" />
    <glyph glyph-name="aring" unicode="&#xe5;" horiz-adv-x="2654" 
d="M2654 893h-1761q20 -197 155.5 -315.5t344.5 -118.5q149 0 304 55t253 141h598q-113 -197 -315.5 -365t-448 -266t-481.5 -98q-279 0 -501.5 121.5t-348 336t-125.5 476.5q0 98 32 262q68 330 286.5 611.5t530 445.5t642.5 164q271 0 485 -126.5t331.5 -343.5t117.5 -472
q0 -118 -25 -246q-10 -59 -29.5 -119.5t-44.5 -142.5zM983 1376h1245q-23 200 -168 317t-356 117q-206 0 -411.5 -119.5t-309.5 -314.5z" />
    <glyph glyph-name="ae" unicode="&#xe6;" horiz-adv-x="3416" 
d="M1434 0l221 1065l-910 -1065h-704l1089 1155l-483 1114h623l418 -1065l221 1065h532l-221 -1065l860 1065h623l-959 -1114l615 -1155h-705l-467 1065l-221 -1065h-532z" />
    <glyph glyph-name="ccedilla" unicode="&#xe7;" horiz-adv-x="2138" 
d="M1130 942l91 442q125 0 235.5 64.5t132.5 173.5v33q0 68 -52.5 111.5t-127.5 43.5q-82 0 -148.5 -42.5t-97.5 -120.5h-532q40 190 178 350.5t328.5 253t378.5 92.5q176 0 317.5 -69t223 -197.5t81.5 -290.5q0 -90 -8 -139q-22 -123 -122.5 -248t-197.5 -187
q92 -45 157 -151.5t65 -241.5q0 -23 -4.5 -57t-4.5 -49q-79 -343 -344 -549q-141 -108 -312.5 -173t-326.5 -65q-300 0 -485.5 171t-185.5 452q0 66 16 164h557l-8 -25q0 -96 63 -162.5t174 -66.5q107 0 194 58t110 163v49q0 99 -96 153t-249 60z" />
    <glyph glyph-name="egrave" unicode="&#xe8;" horiz-adv-x="2654" 
d="M795 0h-574l475 2269h549l-319 -1507l1409 1507h565l-475 -2269h-541l311 1466z" />
    <glyph glyph-name="eacute" unicode="&#xe9;" horiz-adv-x="2605" 
d="M795 0h-574l475 2269h549l-319 -1507l1409 1507h565l-475 -2269h-541l311 1466zM1270 2556l98 467h1163l-98 -467h-1163z" />
    <glyph glyph-name="ecircumflex" unicode="&#xea;" horiz-adv-x="2376" 
d="M221 0l475 2269h549l-221 -1065l950 1065h639l-1048 -1106l712 -1163h-729l-557 1065l-221 -1065h-549z" />
    <glyph glyph-name="edieresis" unicode="&#xeb;" horiz-adv-x="2179" 
d="M1778 2269l442 -2269h-606l-213 1491l-836 -1491h-606l1393 2269h426z" />
    <glyph glyph-name="igrave" unicode="&#xec;" horiz-adv-x="3129" 
d="M1786 0h-459l-237 1548l-328 -1548h-541l475 2269h729l263 -1646l950 1646h729l-475 -2269h-541l328 1548z" />
    <glyph glyph-name="iacute" unicode="&#xed;" horiz-adv-x="2376" 
d="M221 0l475 2269h549l-180 -876h844l180 876h541l-476 -2269h-540l188 909h-844l-188 -909h-549z" />
    <glyph glyph-name="icircumflex" unicode="&#xee;" horiz-adv-x="2654" 
d="M1843 2343q279 0 498 -125.5t340 -344.5t121 -489q0 -126 -25 -254q-72 -327 -294 -605t-534.5 -438.5t-637.5 -160.5q-276 0 -502 126t-353.5 346t-127.5 487q0 83 32 245q51 250 192.5 472t346 389.5t448.5 259.5t496 92zM1704 1810q-129 0 -265.5 -55t-242.5 -149
q-221 -186 -287 -476q-24 -147 -24 -155q0 -144 67 -262t188.5 -186t276.5 -68q187 0 359 88.5t292 242.5t160 340q17 106 17 148q0 231 -151.5 381.5t-389.5 150.5z" />
    <glyph glyph-name="idieresis" unicode="&#xef;" horiz-adv-x="2417" 
d="M221 0l475 2269h1934l-476 -2269h-540l377 1786h-844l-377 -1786h-549z" />
    <glyph glyph-name="eth" unicode="&#xf0;" horiz-adv-x="2753" 
d="M57 -762l639 3031h500l-57 -295q333 369 811 369q254 0 437 -88t316 -281q156 -214 156 -557q0 -146 -25 -278q-69 -322 -275 -601.5t-500.5 -445.5t-616.5 -166q-433 0 -623 320l-213 -1008h-549zM1778 1810q-187 0 -355.5 -88.5t-288 -242.5t-159.5 -340
q-25 -153 -25 -172q0 -192 131 -336q69 -75 174 -123.5t220 -48.5q189 0 362.5 91t295 247.5t161.5 341.5q8 41 8 131q0 145 -65 270.5t-185 197.5t-274 72z" />
    <glyph glyph-name="ntilde" unicode="&#xf1;" horiz-adv-x="2605" 
d="M2007 737h614q-124 -237 -335 -421.5t-465 -287t-502 -102.5q-152 0 -296.5 41.5t-267.5 120.5t-206 182q-221 245 -221 615q0 90 32 270q73 327 295.5 599.5t534.5 430.5t637 158q249 0 463 -105t346.5 -294t148.5 -428h-614q-118 294 -467 294q-190 0 -357.5 -86
t-282.5 -239t-155 -338q-24 -147 -24 -164q0 -233 153 -378.5t404 -145.5q150 0 301.5 76.5t263.5 201.5z" />
    <glyph glyph-name="ograve" unicode="&#xf2;" horiz-adv-x="1753" 
d="M614 0l377 1786h-573l98 483h1696l-98 -483h-574l-377 -1786h-549z" />
    <glyph glyph-name="oacute" unicode="&#xf3;" horiz-adv-x="2277" 
d="M262 -762l623 975l-402 2056h623l213 -1450l852 1450h614l-1941 -3031h-582z" />
    <glyph glyph-name="ocircumflex" unicode="&#xf4;" horiz-adv-x="4456" 
d="M3146 3031l-213 -999q349 311 753 311q255 0 438 -88t316 -281q156 -214 156 -557q0 -146 -25 -278q-51 -241 -181.5 -461t-319 -389.5t-419.5 -266t-473 -96.5q-432 0 -622 320l-213 -1008h-549l213 1008q-332 -320 -754 -320q-276 0 -484.5 123t-320.5 337t-112 474
q0 104 33 279q104 510 491 835q220 195 434.5 282t466.5 87q423 0 623 -311l213 999h549zM1704 1810q-180 0 -350 -92t-289 -246.5t-156 -332.5q-24 -147 -24 -156q0 -148 69.5 -267.5t194 -188t285.5 -68.5q232 0 475 172q253 193 319 508q17 104 17 147q0 225 -152 374.5
t-389 149.5zM3514 1810q-281 0 -510.5 -193.5t-291.5 -477.5q-25 -136 -25 -172q0 -192 131 -336q69 -75 174 -123.5t219 -48.5q189 0 362.5 91t295 247.5t161.5 341.5q9 41 9 131q0 146 -65.5 271t-184.5 197t-275 72z" />
    <glyph glyph-name="otilde" unicode="&#xf5;" horiz-adv-x="2277" 
d="M8 0l1049 1171l-475 1098h630l271 -622l516 622h631l-926 -1098l565 -1171h-672l-303 737l-614 -737h-672z" />
    <glyph glyph-name="odieresis" unicode="&#xf6;" horiz-adv-x="2515" 
d="M221 0l475 2269h549l-377 -1786h844l377 1786h541l-377 -1786h278l-213 -1015h-549l115 532h-1663z" />
    <glyph glyph-name="divide" unicode="&#xf7;" horiz-adv-x="2327" 
d="M451 1442l172 827h548l-155 -729q0 -15 -8.5 -44.5t-8.5 -37.5q0 -85 56.5 -140.5t148.5 -55.5h590l213 1007h541l-475 -2269h-541l164 778h-705q-158 0 -285.5 52.5t-203.5 162t-76 269.5q0 19 25 180z" />
    <glyph glyph-name="oslash" unicode="&#xf8;" horiz-adv-x="3604" 
d="M221 0l475 2269h549l-377 -1786h754l377 1786h541l-377 -1786h737l377 1786h540l-475 -2269h-3121z" />
    <glyph glyph-name="ugrave" unicode="&#xf9;" horiz-adv-x="3695" 
d="M221 0l475 2269h549l-377 -1786h754l377 1786h541l-377 -1786h737l377 1786h540l-376 -1786h278l-213 -1015h-549l115 532h-2851z" />
    <glyph glyph-name="uacute" unicode="&#xfa;" 
d="M516 2269h1106l-180 -860h221q403 0 606 -139q96 -59 154.5 -189t58.5 -270q0 -90 -8 -123q-30 -163 -146 -306t-296 -243q-158 -89 -305 -114t-375 -25h-738l377 1786h-573zM1237 459h115q318 0 393 33q167 62 205 213v40q0 65 -37 112.5t-78 60.5q-76 32 -328 32h-164z
" />
    <glyph glyph-name="ucircumflex" unicode="&#xfb;" horiz-adv-x="2990" 
d="M1057 1409h221q403 0 606 -139q96 -59 154.5 -189t58.5 -270q0 -90 -8 -123q-30 -163 -146 -306t-296 -243q-158 -89 -305 -114t-375 -25h-746l475 2269h541zM852 459h115q318 0 393 33q167 62 205 213v40q0 65 -37 112.5t-78 60.5q-76 32 -328 32h-164zM2679 2269h549
l-475 -2269h-549z" />
    <glyph glyph-name="udieresis" unicode="&#xfc;" horiz-adv-x="2089" 
d="M1057 1409h221q403 0 606 -139q96 -59 154.5 -189t58.5 -270q0 -90 -8 -123q-30 -163 -146 -306t-296 -243q-158 -89 -305 -114t-375 -25h-746l475 2269h541zM852 459h115q318 0 393 33q167 62 205 213v40q0 65 -37 112.5t-78 60.5q-76 32 -328 32h-164z" />
    <glyph glyph-name="yacute" unicode="&#xfd;" horiz-adv-x="2654" 
d="M2089 893h-827l98 483h835q-18 195 -159 314.5t-365 119.5q-346 0 -581 -294h-615q120 239 332 428.5t467.5 294t503.5 104.5q214 0 394.5 -71.5t312 -198.5t204 -299.5t72.5 -372.5q0 -125 -25 -246q-33 -167 -107.5 -327t-187.5 -302.5t-254 -255.5
q-204 -160 -448 -252t-469 -92q-248 0 -460.5 102.5t-345 287t-153.5 421.5h615q50 -125 166.5 -201.5t267.5 -76.5q226 0 423 119t306 315z" />
    <glyph glyph-name="thorn" unicode="&#xfe;" horiz-adv-x="3695" 
d="M958 893l-188 -893h-549l475 2269h549l-188 -893h385q118 281 338 501t502.5 343t576.5 123q280 0 498.5 -125.5t339 -344.5t120.5 -489q0 -131 -24 -254q-72 -328 -294.5 -605.5t-535 -438t-636.5 -160.5q-281 0 -508.5 124.5t-355.5 342t-128 484.5l8 16h-385z
M2720 1810q-129 0 -265.5 -55t-242.5 -149q-221 -186 -287 -476q-24 -147 -24 -155q0 -144 67 -262t188.5 -186t276.5 -68q187 0 359 88.5t292 242.5t160 340q16 100 16 148q0 151 -69 272.5t-191.5 190.5t-279.5 69z" />
    <glyph glyph-name="ydieresis" unicode="&#xff;" horiz-adv-x="2179" 
d="M844 0h-606l720 819q-223 0 -344.5 144.5t-121.5 363.5q0 18 3.5 52.5t8 66t12.5 86.5q85 392 459 598q154 88 303 113.5t377 25.5h745l-475 -2269h-541l189 918zM1638 1212l123 598h-114q-309 0 -385 -32q-60 -22 -132 -103t-90 -176q0 -8 -4 -31t-4 -26
q0 -66 36 -119.5t79 -69.5q97 -41 328 -41h163z" />
    <glyph glyph-name="afii10023" unicode="&#x401;" horiz-adv-x="2089" 
d="M279 0l639 3031h1630l-115 -549h-1065l-147 -696h1015l-114 -541h-1016l-148 -696h1065l-114 -549h-1630zM1090 3260l114 549h549l-115 -549h-548zM1950 3260l114 549h549l-114 -549h-549z" />
    <glyph glyph-name="afii10053" unicode="&#x404;" horiz-adv-x="3416" 
d="M2662 827h648q-127 -203 -306.5 -368t-396.5 -286t-443.5 -184t-443.5 -63q-368 0 -659.5 166.5t-455 456.5t-163.5 639q0 54 41 328q88 420 378.5 783t695 576t819.5 213q227 0 433 -64t371 -183.5t278.5 -294t154.5 -383.5h-639q-106 173 -300 275t-421 102
q-165 0 -324.5 -54t-306.5 -153.5t-264.5 -231t-202.5 -291.5h1376l-106 -532h-1393q0 -219 103 -403t286 -292t406 -108q430 0 835 352z" />
    <glyph glyph-name="afii10054" unicode="&#x405;" horiz-adv-x="2089" 
d="M238 852h589q0 -13 -8 -46t-8 -44q0 -131 102.5 -209t249.5 -78q163 0 301 107t174 270q0 18 4.5 50t4.5 48q0 170 -117 262.5t-309 155.5q-184 65 -288 120.5t-179 158.5q-131 169 -131 417q0 66 16 164q51 239 216 437t396 310.5t469 112.5q198 0 361 -91t257.5 -248.5
t94.5 -348.5q0 -56 -16 -172h-582v49q0 115 -79 189t-191 74q-137 0 -237 -90.5t-132 -229.5q0 -7 -4 -36t-4 -38q0 -109 85 -172.5t234 -122.5q213 -77 323.5 -129.5t201.5 -148.5q196 -184 196 -475q0 -103 -24 -213q-56 -265 -235.5 -485.5t-431.5 -347t-513 -126.5
q-223 0 -409.5 96t-294 265.5t-107.5 376.5q0 30 25 188z" />
    <glyph glyph-name="afii10055" unicode="&#x406;" horiz-adv-x="1139" 
d="M279 0l639 3031h565l-639 -3031h-565z" />
    <glyph glyph-name="afii10056" unicode="&#x407;" horiz-adv-x="1425" 
d="M713 3260l114 549h549l-114 -549h-549zM1573 3260l115 549h548l-114 -549h-549zM442 0l639 3031h566l-639 -3031h-566z" />
    <glyph glyph-name="afii10057" unicode="&#x408;" horiz-adv-x="1950" 
d="M1778 3031h557l-451 -2138q-42 -201 -98.5 -338t-179.5 -276q-146 -166 -341 -259.5t-397 -93.5q-193 0 -351.5 77t-251.5 218t-93 320q0 57 16 155h557q0 -204 213 -204q284 0 361 368z" />
    <glyph glyph-name="afii10062" unicode="&#x40e;" horiz-adv-x="2515" 
d="M1139 0h-590l696 1008l-590 2023h615l377 -1450l942 1450h614zM1303 3359l106 516h1327l-106 -516h-1327z" />
    <glyph glyph-name="afii10017" unicode="&#x410;" horiz-adv-x="2843" 
d="M-74 0l1901 3031h434l639 -3031h-623l-163 786h-1074l-499 -786h-615zM1360 1327h647l-123 918z" />
    <glyph glyph-name="afii10018" unicode="&#x411;" 
d="M279 0l639 3031h1810l-115 -549h-1245l-131 -598h254q257 0 442 -36.5t295 -151.5q108 -102 164.5 -251t56.5 -315q0 -74 -16 -204q-50 -229 -201 -434.5t-364 -327.5q-177 -106 -353.5 -135t-424.5 -29h-811zM958 549h123q15 0 62 -4t69 -4q123 0 287 32
q139 33 243.5 129.5t133.5 231.5v74q0 107 -54 186.5t-151 108.5q-109 32 -303 32h-246z" />
    <glyph glyph-name="afii10019" unicode="&#x412;" horiz-adv-x="2515" 
d="M279 0l639 3031h638q228 0 398.5 -22t298.5 -93q134 -79 214.5 -230.5t80.5 -318.5q0 -90 -8 -131q-46 -188 -168.5 -346.5t-298.5 -234.5q185 -60 285 -210.5t100 -346.5q0 -51 -17 -172q-48 -219 -184.5 -405t-339.5 -316q-185 -120 -390.5 -158.5t-486.5 -46.5h-761z
M958 549h230q151 0 264 20.5t227 85.5q170 105 205 295q0 14 4 41t4 33q0 143 -147 238q-95 57 -303 57h-320zM1237 1868h106q12 0 45 -4t46 -4q173 0 295 49q84 37 147.5 114.5t81.5 163.5v58q0 70 -35.5 129.5t-95.5 83.5q-41 24 -172 24h-287z" />
    <glyph glyph-name="afii10020" unicode="&#x413;" horiz-adv-x="1950" 
d="M279 0l639 3031h1630l-115 -549h-1065l-524 -2482h-565z" />
    <glyph glyph-name="afii10021" unicode="&#x414;" horiz-adv-x="3031" 
d="M369 549l1564 2482h443l516 -2482h303l-238 -1122h-565l123 573h-1999l-123 -573h-557l230 1122h303zM1991 2245l-1000 -1696h1278z" />
    <glyph glyph-name="afii10022" unicode="&#x415;" horiz-adv-x="2179" 
d="M279 0l639 3031h1630l-115 -549h-1065l-147 -696h1015l-114 -541h-1016l-148 -696h1065l-114 -549h-1630z" />
    <glyph glyph-name="afii10024" unicode="&#x416;" horiz-adv-x="3604" 
d="M1516 0l278 1327l-1089 -1327h-648l1311 1532l-663 1499h638l525 -1335l286 1335h566l-287 -1335l1098 1335h639l-1303 -1499l672 -1532h-647l-533 1327l-278 -1327h-565z" />
    <glyph glyph-name="afii10025" unicode="&#x417;" horiz-adv-x="2654" 
d="M1475 1819h65q181 0 344 65q115 67 178.5 144.5t91.5 207.5v25q0 93 -92 186t-219 93q-175 0 -315.5 -123t-184.5 -303h-548q59 220 166.5 397t260 305t341 196t403.5 68q203 0 372.5 -87t267 -244t97.5 -357q0 -66 -16 -180q-90 -426 -508 -615q336 -137 336 -548
q0 -65 -16 -197q-55 -265 -245.5 -477.5t-457 -330.5t-534.5 -118q-233 0 -421 104t-293.5 286t-105.5 405q0 59 17 180h549q0 -16 -4.5 -42.5t-4.5 -39.5q0 -152 117.5 -256t284.5 -104q190 0 354 102t203 291q0 18 4 49t4 41q0 155 -139 279q-117 98 -402 98h-57z" />
    <glyph glyph-name="afii10026" unicode="&#x418;" horiz-adv-x="3031" 
d="M2736 0h-565l467 2204l-1737 -2204h-622l639 3031h565l-467 -2212l1728 2212h631z" />
    <glyph glyph-name="afii10027" unicode="&#x419;" horiz-adv-x="3031" 
d="M2736 0h-565l467 2204l-1737 -2204h-622l639 3031h565l-467 -2212l1728 2212h631zM1556 3359l107 516h1327l-106 -516h-1328z" />
    <glyph glyph-name="afii10028" unicode="&#x41a;" horiz-adv-x="2564" 
d="M279 0l639 3031h565l-279 -1311l1221 1311h672l-1467 -1491l828 -1540h-672l-664 1327l-278 -1327h-565z" />
    <glyph glyph-name="afii10029" unicode="&#x41b;" horiz-adv-x="2703" 
d="M1769 3031h459l533 -3031h-590l-328 2302l-1302 -2302h-590z" />
    <glyph glyph-name="afii10030" unicode="&#x41c;" horiz-adv-x="3744" 
d="M279 0l639 3031h770l319 -2318l1311 2318h762l-639 -3031h-557l475 2269l-1262 -2269h-475l-303 2269l-475 -2269h-565z" />
    <glyph glyph-name="afii10031" unicode="&#x41d;" horiz-adv-x="2753" 
d="M279 0l639 3031h565l-254 -1212h1081l254 1212h557l-639 -3031h-557l262 1270h-1081l-262 -1270h-565z" />
    <glyph glyph-name="afii10032" unicode="&#x41e;" horiz-adv-x="3416" 
d="M2359 3088q363 0 652.5 -163.5t449.5 -451t160 -638.5q0 -184 -33 -336q-89 -430 -376 -791t-694.5 -571.5t-829.5 -210.5q-367 0 -663.5 163t-464 450t-167.5 641q0 47 41 319q93 435 383.5 800t701.5 577t840 212zM2236 2540q-275 0 -538.5 -137.5t-448.5 -373.5
t-241 -513q-25 -206 -25 -222q0 -226 104 -414.5t291.5 -296.5t423.5 -108q269 0 533 141.5t453.5 381t250.5 518.5q17 138 17 204q0 174 -58.5 323t-168 261t-260.5 174t-333 62z" />
    <glyph glyph-name="afii10033" unicode="&#x41f;" horiz-adv-x="2753" 
d="M3121 3031l-639 -3031h-557l524 2482h-1081l-524 -2482h-565l639 3031h2203z" />
    <glyph glyph-name="afii10034" unicode="&#x420;" horiz-adv-x="2327" 
d="M844 0h-565l639 3031h786q161 0 278.5 -10t231.5 -46.5t203 -107.5q120 -89 187 -242.5t67 -322.5q0 -57 -17 -197q-34 -150 -104 -290t-176 -262.5t-244 -217.5q-168 -117 -369.5 -156.5t-449.5 -39.5q-21 0 -62 4t-61 4h-107zM1196 1696h98q15 0 58 -4t65 -4
q158 0 320 41q135 37 232.5 137t127.5 231q0 13 4 41t4 41q0 103 -64 179t-165 100q-111 24 -279 24h-229z" />
    <glyph glyph-name="afii10035" unicode="&#x421;" horiz-adv-x="3318" 
d="M2621 827h648q-127 -203 -306.5 -368t-396.5 -286t-443.5 -184t-443.5 -63q-368 0 -659.5 166.5t-455 456.5t-163.5 639q0 54 41 328q88 420 378.5 783t695 576t819.5 213q227 0 433 -64t371 -183.5t278.5 -294t154.5 -383.5h-639q-106 173 -300 275t-421 102
q-270 0 -527.5 -141.5t-441.5 -382t-244 -517.5q-7 -50 -12 -82t-8.5 -68.5t-3.5 -54.5q0 -222 106 -411t292 -298.5t413 -109.5q430 0 835 352z" />
    <glyph glyph-name="afii10036" unicode="&#x422;" horiz-adv-x="1712" 
d="M590 0l524 2482h-557l115 549h1679l-115 -549h-565l-524 -2482h-557z" />
    <glyph glyph-name="afii10037" unicode="&#x423;" horiz-adv-x="2515" 
d="M1139 0h-590l696 1008l-590 2023h615l377 -1450l942 1450h614z" />
    <glyph glyph-name="afii10038" unicode="&#x424;" horiz-adv-x="3465" 
d="M2654 3031l-65 -295h123q280 0 498.5 -126t339 -344.5t120.5 -487.5q0 -133 -25 -254q-68 -329 -290.5 -606.5t-536 -438t-639.5 -160.5h-98l-66 -319h-565l66 319h-99q-282 0 -508.5 123t-354.5 340.5t-128 487.5q0 95 33 254q68 327 285 605.5t525.5 442.5t631.5 164
h122l66 295h565zM1630 852l287 1352h-98q-186 0 -357 -90.5t-292.5 -247.5t-161.5 -342q-25 -136 -25 -156q0 -223 153 -369.5t396 -146.5h98zM2195 852h99q186 0 356.5 88.5t288.5 243t158 340.5q16 98 16 147q0 227 -148.5 380t-384.5 153h-98z" />
    <glyph glyph-name="afii10039" unicode="&#x425;" horiz-adv-x="2802" 
d="M25 0l1359 1507l-720 1524h655l491 -1040l943 1040h655l-1368 -1524l729 -1507h-655l-508 1032l-926 -1032h-655z" />
    <glyph glyph-name="afii10040" unicode="&#x426;" horiz-adv-x="2941" 
d="M2310 0h-2031l639 3031h565l-525 -2482h1082l524 2482h557l-524 -2482h393l-237 -1122h-566z" />
    <glyph glyph-name="afii10041" unicode="&#x427;" horiz-adv-x="2703" 
d="M1196 1950q0 -9 -4 -38t-4 -36q0 -113 83.5 -183.5t203.5 -70.5h737l295 1409h557l-639 -3031h-557l221 1073h-934q-164 0 -299 66t-213 185t-78 265q0 54 17 131l278 1311h565z" />
    <glyph glyph-name="afii10042" unicode="&#x428;" horiz-adv-x="4030" 
d="M3744 0h-3465l639 3031h565l-525 -2482h902l524 2482h557l-524 -2482h884l525 2482h557z" />
    <glyph glyph-name="afii10043" unicode="&#x429;" horiz-adv-x="4219" 
d="M3572 0h-3293l639 3031h565l-525 -2482h902l524 2482h557l-524 -2482h884l525 2482h557l-525 -2482h394l-238 -1122h-565z" />
    <glyph glyph-name="afii10044" unicode="&#x42a;" horiz-adv-x="2703" 
d="M672 3031h1122l-246 -1147h230q257 0 442 -36.5t295 -151.5q108 -102 164.5 -251t56.5 -315q0 -74 -16 -204q-50 -229 -201 -434.5t-365 -327.5q-177 -106 -353.5 -135t-424.5 -29h-786l524 2482h-557zM1434 1335l-164 -786h98q15 0 62 -4t69 -4q123 0 287 32
q139 33 243.5 129.5t133.5 231.5v74q0 107 -54 186.5t-151 108.5q-109 32 -303 32h-221z" />
    <glyph glyph-name="afii10045" unicode="&#x42b;" horiz-adv-x="3318" 
d="M1483 3031l-246 -1147h229q258 0 443 -36.5t295 -151.5q108 -102 164.5 -251t56.5 -315q0 -81 -17 -204q-48 -228 -199.5 -434t-365.5 -328q-177 -106 -353.5 -135t-424.5 -29h-786l639 3031h565zM1122 1335l-164 -786h99q15 0 62 -4t69 -4q123 0 287 32
q140 33 243.5 128.5t132.5 232.5v74q0 107 -53 186t-151 109q-109 32 -304 32h-221zM2458 0l639 3031h565l-639 -3031h-565z" />
    <glyph glyph-name="afii10046" unicode="&#x42c;" horiz-adv-x="2417" 
d="M1483 3031l-246 -1147h229q258 0 443 -36.5t295 -151.5q108 -102 164.5 -251t56.5 -315q0 -81 -17 -204q-48 -228 -199.5 -434t-365.5 -328q-177 -106 -353.5 -135t-424.5 -29h-786l639 3031h565zM1122 1335l-164 -786h99q15 0 62 -4t69 -4q123 0 287 32
q140 33 243.5 128.5t132.5 232.5v74q0 107 -53 186t-151 109q-109 32 -304 32h-221z" />
    <glyph glyph-name="afii10047" unicode="&#x42d;" horiz-adv-x="3367" 
d="M1032 827q248 -352 688 -352q222 0 450 108t410 291.5t279 403.5h-1393l107 532h1376q-21 210 -124 375.5t-274 260t-388 94.5q-225 0 -457.5 -102t-411.5 -275h-639q168 279 435 489.5t580 323t616 112.5q270 0 500.5 -95t398.5 -265.5t261 -401.5t93 -491
q0 -113 -33 -319q-67 -319 -248.5 -607t-447.5 -511t-581 -347.5t-632 -124.5q-217 0 -416 62.5t-364.5 183t-277 287.5t-154.5 368h647z" />
    <glyph glyph-name="afii10048" unicode="&#x42e;" horiz-adv-x="4743" 
d="M1671 1270h-565l-262 -1270h-565l639 3031h565l-254 -1212h573q112 270 304 504t436.5 405t524 265.5t562.5 94.5q363 0 652.5 -163.5t449.5 -451t160 -638.5q0 -178 -33 -336q-88 -428 -376.5 -790t-695.5 -572.5t-829 -210.5q-362 0 -659 159.5t-466 439.5t-169 622
q0 16 4 61t4 62zM3506 2540q-275 0 -538.5 -137.5t-449 -373t-241.5 -513.5q-6 -50 -11.5 -88.5t-9 -75t-3.5 -58.5q0 -226 104 -414.5t291.5 -296.5t423.5 -108q269 0 533 141.5t453.5 381t250.5 518.5q16 130 16 204q0 174 -58.5 323t-167 261t-260 174t-333.5 62z" />
    <glyph glyph-name="afii10049" unicode="&#x42f;" 
d="M2163 0h-566l246 1163l-1040 -1163h-688l1056 1122q-321 67 -483 287q-131 184 -131 467q0 36 25 197q34 142 105.5 279t176 257t234.5 209q181 126 368 165.5t459 47.5h877zM1933 1589l189 893h-393q-198 0 -361 -98q-182 -121 -238 -344q0 -13 -8 -50t-8 -48
q0 -109 90 -230q104 -123 426 -123h303z" />
    <glyph glyph-name="afii10065" unicode="&#x430;" horiz-adv-x="2753" 
d="M2998 2269l-475 -2269h-500l66 311q-171 -177 -406.5 -281t-453.5 -104q-260 0 -452.5 101t-301.5 284q-147 229 -147 533q0 97 32 295q102 479 467 811q418 393 926 393q234 0 412 -102.5t268 -290.5l66 319h499zM2245 1139q8 49 8 155q0 146 -62.5 264t-180 185
t-273.5 67h-25q-189 0 -360.5 -91t-291 -251t-159.5 -354q-16 -82 -16 -139q0 -221 155.5 -368.5t393.5 -147.5q191 0 363 89.5t290 244.5t158 346z" />
    <glyph glyph-name="afii10066" unicode="&#x431;" horiz-adv-x="2753" 
d="M1974 2695q-130 0 -278.5 -62t-270.5 -159q-139 -111 -213 -232t-114 -292q393 393 811 393h16q223 0 414 -102t307 -259q180 -227 180 -598q0 -151 -24 -286q-100 -445 -467 -787q-209 -183 -451.5 -284t-490.5 -101q-600 12 -836 377q-172 260 -172 516q0 31 41 303
l164 803q65 281 180 487t328 390q226 188 480 290.5t503 102.5h868l-106 -500h-869zM942 1155q-16 -98 -16 -156q0 -232 145.5 -386t386.5 -154q290 0 524 196q213 179 279 467q16 98 16 148q0 154 -69 277.5t-196.5 193t-291.5 69.5q-176 0 -340 -89.5t-281 -240.5
t-157 -325z" />
    <glyph glyph-name="afii10067" unicode="&#x432;" horiz-adv-x="2138" 
d="M1450 2269q204 0 305 -13t195 -61q93 -46 177.5 -176t84.5 -258q0 -11 -4 -36t-4 -37q-44 -180 -126 -290.5t-227 -176.5q246 -111 246 -394q0 -57 -16 -155q-68 -331 -434 -533q-158 -89 -305 -114t-375 -25h-746l475 2269h754zM852 459h115q318 0 393 33
q167 62 205 213v40q0 65 -37 112.5t-78 60.5q-76 32 -328 32h-164zM1049 1376h81q10 0 47 -4t60 -4q143 0 254 33q147 57 172 196v41q0 130 -115 164q-104 17 -172 17q-34 0 -82.5 -4.5t-72.5 -4.5h-82z" />
    <glyph glyph-name="afii10068" unicode="&#x433;" horiz-adv-x="1614" 
d="M221 0l475 2269h1368l-98 -483h-819l-377 -1786h-549z" />
    <glyph glyph-name="afii10069" unicode="&#x434;" horiz-adv-x="2327" 
d="M1417 2269h426l344 -1786h238l-213 -1015h-549l115 532h-1246l-114 -532h-541l205 1015h237zM1466 1491l-565 -1008h705z" />
    <glyph glyph-name="afii10070" unicode="&#x435;" horiz-adv-x="2654" 
d="M2654 893h-1761q20 -197 155.5 -315.5t344.5 -118.5q149 0 304 55t253 141h598q-113 -197 -315.5 -365t-448 -266t-481.5 -98q-279 0 -501.5 121.5t-348 336t-125.5 476.5q0 98 32 262q68 330 286.5 611.5t530 445.5t642.5 164q271 0 485 -126.5t331.5 -343.5t117.5 -472
q0 -118 -25 -246q-10 -59 -29.5 -119.5t-44.5 -142.5zM983 1376h1245q-23 200 -168 317t-356 117q-206 0 -411.5 -119.5t-309.5 -314.5z" />
    <glyph glyph-name="afii10072" unicode="&#x436;" horiz-adv-x="3416" 
d="M1434 0l221 1065l-910 -1065h-704l1089 1155l-483 1114h623l418 -1065l221 1065h532l-221 -1065l860 1065h623l-959 -1114l615 -1155h-705l-467 1065l-221 -1065h-532z" />
    <glyph glyph-name="afii10073" unicode="&#x437;" horiz-adv-x="2138" 
d="M1130 942l91 442q125 0 235.5 64.5t132.5 173.5v33q0 68 -52.5 111.5t-127.5 43.5q-82 0 -148.5 -42.5t-97.5 -120.5h-532q40 190 178 350.5t328.5 253t378.5 92.5q176 0 317.5 -69t223 -197.5t81.5 -290.5q0 -90 -8 -139q-22 -123 -122.5 -248t-197.5 -187
q92 -45 157 -151.5t65 -241.5q0 -23 -4.5 -57t-4.5 -49q-79 -343 -344 -549q-141 -108 -312.5 -173t-326.5 -65q-300 0 -485.5 171t-185.5 452q0 66 16 164h557l-8 -25q0 -96 63 -162.5t174 -66.5q107 0 194 58t110 163v49q0 99 -96 153t-249 60z" />
    <glyph glyph-name="afii10074" unicode="&#x438;" horiz-adv-x="2654" 
d="M795 0h-574l475 2269h549l-319 -1507l1409 1507h565l-475 -2269h-541l311 1466z" />
    <glyph glyph-name="afii10075" unicode="&#x439;" horiz-adv-x="2605" 
d="M795 0h-574l475 2269h549l-319 -1507l1409 1507h565l-475 -2269h-541l311 1466zM1270 2556l98 467h1163l-98 -467h-1163z" />
    <glyph glyph-name="afii10076" unicode="&#x43a;" horiz-adv-x="2376" 
d="M221 0l475 2269h549l-221 -1065l950 1065h639l-1048 -1106l712 -1163h-729l-557 1065l-221 -1065h-549z" />
    <glyph glyph-name="afii10077" unicode="&#x43b;" horiz-adv-x="2179" 
d="M1778 2269l442 -2269h-606l-213 1491l-836 -1491h-606l1393 2269h426z" />
    <glyph glyph-name="afii10078" unicode="&#x43c;" horiz-adv-x="3129" 
d="M1786 0h-459l-237 1548l-328 -1548h-541l475 2269h729l263 -1646l950 1646h729l-475 -2269h-541l328 1548z" />
    <glyph glyph-name="afii10079" unicode="&#x43d;" horiz-adv-x="2376" 
d="M221 0l475 2269h549l-180 -876h844l180 876h541l-476 -2269h-540l188 909h-844l-188 -909h-549z" />
    <glyph glyph-name="afii10080" unicode="&#x43e;" horiz-adv-x="2654" 
d="M1843 2343q279 0 498 -125.5t340 -344.5t121 -489q0 -126 -25 -254q-72 -327 -294 -605t-534.5 -438.5t-637.5 -160.5q-276 0 -502 126t-353.5 346t-127.5 487q0 83 32 245q51 250 192.5 472t346 389.5t448.5 259.5t496 92zM1704 1810q-129 0 -265.5 -55t-242.5 -149
q-221 -186 -287 -476q-24 -147 -24 -155q0 -144 67 -262t188.5 -186t276.5 -68q187 0 359 88.5t292 242.5t160 340q17 106 17 148q0 231 -151.5 381.5t-389.5 150.5z" />
    <glyph glyph-name="afii10081" unicode="&#x43f;" horiz-adv-x="2417" 
d="M221 0l475 2269h1934l-476 -2269h-540l377 1786h-844l-377 -1786h-549z" />
    <glyph glyph-name="afii10082" unicode="&#x440;" horiz-adv-x="2753" 
d="M57 -762l639 3031h500l-57 -295q333 369 811 369q254 0 437 -88t316 -281q156 -214 156 -557q0 -146 -25 -278q-69 -322 -275 -601.5t-500.5 -445.5t-616.5 -166q-433 0 -623 320l-213 -1008h-549zM1778 1810q-187 0 -355.5 -88.5t-288 -242.5t-159.5 -340
q-25 -153 -25 -172q0 -192 131 -336q69 -75 174 -123.5t220 -48.5q189 0 362.5 91t295 247.5t161.5 341.5q8 41 8 131q0 145 -65 270.5t-185 197.5t-274 72z" />
    <glyph glyph-name="afii10083" unicode="&#x441;" horiz-adv-x="2605" 
d="M2007 737h614q-124 -237 -335 -421.5t-465 -287t-502 -102.5q-152 0 -296.5 41.5t-267.5 120.5t-206 182q-221 245 -221 615q0 90 32 270q73 327 295.5 599.5t534.5 430.5t637 158q249 0 463 -105t346.5 -294t148.5 -428h-614q-118 294 -467 294q-190 0 -357.5 -86
t-282.5 -239t-155 -338q-24 -147 -24 -164q0 -233 153 -378.5t404 -145.5q150 0 301.5 76.5t263.5 201.5z" />
    <glyph glyph-name="afii10084" unicode="&#x442;" horiz-adv-x="1753" 
d="M614 0l377 1786h-573l98 483h1696l-98 -483h-574l-377 -1786h-549z" />
    <glyph glyph-name="afii10085" unicode="&#x443;" horiz-adv-x="2277" 
d="M262 -762l623 975l-402 2056h623l213 -1450l852 1450h614l-1941 -3031h-582z" />
    <glyph glyph-name="afii10086" unicode="&#x444;" horiz-adv-x="4456" 
d="M3146 3031l-213 -999q349 311 753 311q255 0 438 -88t316 -281q156 -214 156 -557q0 -146 -25 -278q-51 -241 -181.5 -461t-319 -389.5t-419.5 -266t-473 -96.5q-432 0 -622 320l-213 -1008h-549l213 1008q-332 -320 -754 -320q-276 0 -484.5 123t-320.5 337t-112 474
q0 104 33 279q104 510 491 835q220 195 434.5 282t466.5 87q423 0 623 -311l213 999h549zM1704 1810q-180 0 -350 -92t-289 -246.5t-156 -332.5q-24 -147 -24 -156q0 -148 69.5 -267.5t194 -188t285.5 -68.5q232 0 475 172q253 193 319 508q17 104 17 147q0 225 -152 374.5
t-389 149.5zM3514 1810q-281 0 -510.5 -193.5t-291.5 -477.5q-25 -136 -25 -172q0 -192 131 -336q69 -75 174 -123.5t219 -48.5q189 0 362.5 91t295 247.5t161.5 341.5q9 41 9 131q0 146 -65.5 271t-184.5 197t-275 72z" />
    <glyph glyph-name="afii10087" unicode="&#x445;" horiz-adv-x="2277" 
d="M8 0l1049 1171l-475 1098h630l271 -622l516 622h631l-926 -1098l565 -1171h-672l-303 737l-614 -737h-672z" />
    <glyph glyph-name="afii10088" unicode="&#x446;" horiz-adv-x="2515" 
d="M221 0l475 2269h549l-377 -1786h844l377 1786h541l-377 -1786h278l-213 -1015h-549l115 532h-1663z" />
    <glyph glyph-name="afii10089" unicode="&#x447;" horiz-adv-x="2327" 
d="M451 1442l172 827h548l-155 -729q0 -15 -8.5 -44.5t-8.5 -37.5q0 -85 56.5 -140.5t148.5 -55.5h590l213 1007h541l-475 -2269h-541l164 778h-705q-158 0 -285.5 52.5t-203.5 162t-76 269.5q0 19 25 180z" />
    <glyph glyph-name="afii10090" unicode="&#x448;" horiz-adv-x="3604" 
d="M221 0l475 2269h549l-377 -1786h754l377 1786h541l-377 -1786h737l377 1786h540l-475 -2269h-3121z" />
    <glyph glyph-name="afii10091" unicode="&#x449;" horiz-adv-x="3695" 
d="M221 0l475 2269h549l-377 -1786h754l377 1786h541l-377 -1786h737l377 1786h540l-376 -1786h278l-213 -1015h-549l115 532h-2851z" />
    <glyph glyph-name="afii10092" unicode="&#x44a;" 
d="M516 2269h1106l-180 -860h221q403 0 606 -139q96 -59 154.5 -189t58.5 -270q0 -90 -8 -123q-30 -163 -146 -306t-296 -243q-158 -89 -305 -114t-375 -25h-738l377 1786h-573zM1237 459h115q318 0 393 33q167 62 205 213v40q0 65 -37 112.5t-78 60.5q-76 32 -328 32h-164z
" />
    <glyph glyph-name="afii10093" unicode="&#x44b;" horiz-adv-x="2990" 
d="M1057 1409h221q403 0 606 -139q96 -59 154.5 -189t58.5 -270q0 -90 -8 -123q-30 -163 -146 -306t-296 -243q-158 -89 -305 -114t-375 -25h-746l475 2269h541zM852 459h115q318 0 393 33q167 62 205 213v40q0 65 -37 112.5t-78 60.5q-76 32 -328 32h-164zM2679 2269h549
l-475 -2269h-549z" />
    <glyph glyph-name="afii10094" unicode="&#x44c;" horiz-adv-x="2089" 
d="M1057 1409h221q403 0 606 -139q96 -59 154.5 -189t58.5 -270q0 -90 -8 -123q-30 -163 -146 -306t-296 -243q-158 -89 -305 -114t-375 -25h-746l475 2269h541zM852 459h115q318 0 393 33q167 62 205 213v40q0 65 -37 112.5t-78 60.5q-76 32 -328 32h-164z" />
    <glyph glyph-name="afii10095" unicode="&#x44d;" horiz-adv-x="2654" 
d="M2089 893h-827l98 483h835q-18 195 -159 314.5t-365 119.5q-346 0 -581 -294h-615q120 239 332 428.5t467.5 294t503.5 104.5q214 0 394.5 -71.5t312 -198.5t204 -299.5t72.5 -372.5q0 -125 -25 -246q-33 -167 -107.5 -327t-187.5 -302.5t-254 -255.5
q-204 -160 -448 -252t-469 -92q-248 0 -460.5 102.5t-345 287t-153.5 421.5h615q50 -125 166.5 -201.5t267.5 -76.5q226 0 423 119t306 315z" />
    <glyph glyph-name="afii10096" unicode="&#x44e;" horiz-adv-x="3695" 
d="M958 893l-188 -893h-549l475 2269h549l-188 -893h385q118 281 338 501t502.5 343t576.5 123q280 0 498.5 -125.5t339 -344.5t120.5 -489q0 -131 -24 -254q-72 -328 -294.5 -605.5t-535 -438t-636.5 -160.5q-281 0 -508.5 124.5t-355.5 342t-128 484.5l8 16h-385z
M2720 1810q-129 0 -265.5 -55t-242.5 -149q-221 -186 -287 -476q-24 -147 -24 -155q0 -144 67 -262t188.5 -186t276.5 -68q187 0 359 88.5t292 242.5t160 340q16 100 16 148q0 151 -69 272.5t-191.5 190.5t-279.5 69z" />
    <glyph glyph-name="afii10097" unicode="&#x44f;" horiz-adv-x="2179" 
d="M844 0h-606l720 819q-223 0 -344.5 144.5t-121.5 363.5q0 18 3.5 52.5t8 66t12.5 86.5q85 392 459 598q154 88 303 113.5t377 25.5h745l-475 -2269h-541l189 918zM1638 1212l123 598h-114q-309 0 -385 -32q-60 -22 -132 -103t-90 -176q0 -8 -4 -31t-4 -26
q0 -66 36 -119.5t79 -69.5q97 -41 328 -41h163z" />
    <glyph glyph-name="afii10071" unicode="&#x451;" horiz-adv-x="2654" 
d="M2654 893h-1761q20 -197 155.5 -315.5t344.5 -118.5q149 0 304 55t253 141h598q-113 -197 -315.5 -365t-448 -266t-481.5 -98q-279 0 -501.5 121.5t-348 336t-125.5 476.5q0 98 32 262q68 330 286.5 611.5t530 445.5t642.5 164q271 0 485 -126.5t331.5 -343.5t117.5 -472
q0 -118 -25 -246q-10 -59 -29.5 -119.5t-44.5 -142.5zM983 1376h1245q-23 200 -168 317t-356 117q-206 0 -411.5 -119.5t-309.5 -314.5zM1212 2580l123 549h549l-123 -549h-549zM2073 2580l122 549h549l-123 -549h-548z" />
    <glyph glyph-name="afii10101" unicode="&#x454;" horiz-adv-x="2605" 
d="M918 893q24 -198 166 -316t366 -118q150 0 301.5 76.5t263.5 201.5h615q-124 -237 -335 -421.5t-466 -287t-502 -102.5q-152 0 -296.5 41.5t-267.5 120.5t-206 182q-221 247 -221 615q0 95 33 270q73 326 295 599t534 431t637 158q249 0 463 -105t346.5 -294t148.5 -428
h-614q-118 294 -467 294q-148 0 -283.5 -55t-243 -153t-177.5 -226h835l-98 -483h-827z" />
    <glyph glyph-name="afii10102" unicode="&#x455;" horiz-adv-x="1802" 
d="M2007 1647h-532v8q0 68 -52.5 111.5t-128.5 43.5q-90 0 -159 -49t-86 -139q0 -6 -4.5 -21.5t-4.5 -19.5q0 -79 69.5 -112t201.5 -68q272 -93 422.5 -209.5t150.5 -331.5q0 -49 -16 -147q-79 -341 -344 -549q-140 -107 -312 -172.5t-327 -65.5q-301 0 -486.5 171
t-185.5 452q0 66 16 164h557l-8 -25q0 -97 63.5 -163t174.5 -66q106 0 193 58t110 163v41q0 96 -90 151t-230 103q-144 44 -215.5 79.5t-152.5 116.5q-139 141 -139 328q0 48 16 148q44 203 182.5 362t333 246.5t393.5 87.5q161 0 298.5 -74.5t218.5 -207t81 -292.5
q0 -81 -8 -122z" />
    <glyph glyph-name="afii10103" unicode="&#x456;" horiz-adv-x="999" 
d="M221 0l475 2269h549l-475 -2269h-549zM754 2531l106 500h549l-106 -500h-549z" />
    <glyph glyph-name="afii10104" unicode="&#x457;" horiz-adv-x="1376" 
d="M492 3031h548l-106 -516h-549zM1303 3031h548l-106 -516h-549zM721 2261h549l-475 -2261h-549z" />
    <glyph glyph-name="afii10105" unicode="&#x458;" horiz-adv-x="3465" 
d="M770 2269h549l-451 -2130q-86 -428 -352 -663q-262 -238 -598 -238l107 533q87 3 140.5 34t81 80.5t46 123t35.5 147.5zM827 2531l107 500h549l-107 -500h-549z" />
    <glyph glyph-name="afii10110" unicode="&#x45e;" horiz-adv-x="2277" 
d="M279 -762l622 975l-401 2056h622l213 -1450l852 1450h615l-1942 -3031h-581zM1212 2556l99 467h1073l-98 -467h-1074z" />
    <glyph glyph-name="afii10050" unicode="&#x490;" horiz-adv-x="1991" 
d="M279 0l639 3031h1064l123 573h566l-238 -1122h-1065l-524 -2482h-565z" />
    <glyph glyph-name="afii10098" unicode="&#x491;" horiz-adv-x="1663" 
d="M221 0l475 2269h820l114 533h549l-213 -1016h-819l-377 -1786h-549z" />
    <glyph glyph-name="emdash" unicode="&#x2013;" horiz-adv-x="2089" 
d="M0 1065v483h2048v-483h-2048z" />
    <glyph glyph-name="endash" unicode="&#x2014;" horiz-adv-x="4121" 
d="M0 1065v483h4096v-483h-4096z" />
    <glyph glyph-name="quoteleft" unicode="&#x2018;" horiz-adv-x="1188" 
d="M844 2515v-549h-549v524q0 166 26 261t121 190q162 147 361 147h33v-278q-238 -31 -238 -230v-65h246z" />
    <glyph glyph-name="quoteright" unicode="&#x2019;" horiz-adv-x="1188" 
d="M295 2482v549h549v-532q0 -159 -26 -253t-122 -190q-169 -155 -368 -155q-5 0 -13 4t-12 4v278q238 31 238 230v65h-246z" />
    <glyph glyph-name="quotesinglbase" unicode="&#x201a;" horiz-adv-x="1565" 
 />
    <glyph glyph-name="quotedblleft" unicode="&#x201c;" horiz-adv-x="1991" 
d="M836 2515v-549h-549v524q0 166 26 261t121 190q160 147 361 147h32v-278q-237 -31 -237 -230v-65h246zM1679 2515v-549h-540v524q0 173 24 265t123 186q147 147 352 147h33v-278q-229 -30 -229 -230v-65h237z" />
    <glyph glyph-name="quotedblright" unicode="&#x201d;" horiz-adv-x="1991" 
d="M287 2482v549h549v-532q0 -159 -25.5 -252.5t-122.5 -190.5q-169 -155 -369 -155q-4 0 -12 4t-12 4v278q237 31 237 230v65h-245zM1139 2482v549h540v-532q0 -159 -26 -253.5t-121 -189.5q-70 -70 -170.5 -112.5t-198.5 -42.5q-4 0 -12 4t-12 4v278q237 29 237 230v65
h-237z" />
    <glyph glyph-name="quotedblbase" unicode="&#x201e;" horiz-adv-x="1565" 
 />
    <glyph glyph-name="dagger" unicode="&#x2020;" horiz-adv-x="1565" 
 />
    <glyph glyph-name="daggerdbl" unicode="&#x2021;" horiz-adv-x="1565" 
 />
    <glyph glyph-name="bullet" unicode="&#x2022;" 
d="M1933 1303q0 -185 -93.5 -344t-253 -252t-349.5 -93q-185 0 -343.5 93t-251.5 252t-93 344q0 190 93 347.5t251 249t344 91.5q191 0 350 -91.5t252.5 -249t93.5 -347.5z" />
    <glyph glyph-name="ellipsis" unicode="&#x2026;" horiz-adv-x="1565" 
 />
    <glyph glyph-name="perthousand" unicode="&#x2030;" horiz-adv-x="1565" 
 />
    <glyph glyph-name="guilsinglleft" unicode="&#x2039;" 
d="M2417 631l-99 -459l-1884 926l82 401l2286 934l-99 -459l-1630 -680z" />
    <glyph glyph-name="guilsinglright" unicode="&#x203a;" 
d="M328 631l1622 663l-1336 680l99 459l1884 -934l-82 -401l-2286 -926z" />
    <glyph glyph-name="afii61352" unicode="&#x2116;" horiz-adv-x="4121" 
d="M279 0l639 3031h630l582 -2056l434 2056h565l-639 -3031h-622l-598 2023l-426 -2023h-565zM3727 1802q149 0 264.5 -64t179.5 -179.5t64 -255.5q0 -91 -8 -132q-37 -174 -150.5 -318t-277 -228t-334.5 -84q-214 0 -361 144.5t-147 354.5q0 44 17 131q36 170 150 315.5
t275 230.5t328 85zM3670 1524q-139 0 -258.5 -104t-151.5 -249q0 -12 -8 -43t-8 -38q0 -112 81.5 -191.5t197.5 -79.5q152 0 274 102t152 250v74q0 118 -78.5 198.5t-200.5 80.5zM2728 8l57 262h1254l-58 -262h-1253z" />
    <glyph glyph-name="trademark" unicode="&#x2122;" horiz-adv-x="1565" 
 />
    <glyph glyph-name="NULL" horiz-adv-x="0" 
 />
  </font>
</defs>
</svg>
