<?xml version="1.0"?>
<svg xmlns="http://www.w3.org/2000/svg" xmlns:xlink="http://www.w3.org/1999/xlink" version="1.1" id="Layer_1" x="0px" y="0px" viewBox="0 0 505 505" style="enable-background:new 0 0 505 505;" xml:space="preserve" width="512px" height="512px" class=""><g><circle style="fill:#009ACD" cx="252.5" cy="252.5" r="252.5" data-original="#FD8469" class="" data-old_color="#009acd"/><path style="fill:#FFFFFF;" d="M252.5,63.5c-103.6,0-187.9,83.7-189,186.9h28.8C93.4,163,164.8,92.3,252.5,92.3  c88.4,0,160.2,71.9,160.2,160.2c0,88.4-71.9,160.2-160.2,160.2v28.8c104.2,0,189-84.8,189-189S356.7,63.5,252.5,63.5z" data-original="#FFFFFF" class=""/><path style="fill:#FFFFFF" d="M243.5,261.5h137.6c-4.6,67-60.4,119.9-128.6,119.9c-71.2,0-128.9-57.7-128.9-128.9  c0-68.2,52.9-124,119.9-128.6V261.5z" data-original="#FFD05B" class="" data-old_color="#ffffff"/><path style="fill:#FFFFFF" d="M381.1,243.5H261.5V123.9C325.5,128.3,376.7,179.5,381.1,243.5z" data-original="#324A5E" class="active-path" data-old_color="#ffffff"/></g> </svg>
