<?xml version="1.0"?>
<svg xmlns="http://www.w3.org/2000/svg" xmlns:xlink="http://www.w3.org/1999/xlink" version="1.1" id="Layer_1" x="0px" y="0px" viewBox="0 0 508 508" style="enable-background:new 0 0 508 508;" xml:space="preserve" width="512px" height="512px" class=""><g><circle style="fill:#0099CC" cx="254" cy="254" r="254" data-original="#F1543F" class="" data-old_color="#0099cc"/><g>
	<path style="fill:#FFFFFF" d="M332.8,375.6c-4.4,0-8-3.6-8-8v-96.8h-86c-4.4,0-8-3.6-8-8s3.6-8,8-8h93.6c4.4,0,8,3.6,8,8v104.4   C340.4,372,336.8,375.6,332.8,375.6z" data-original="#324A5E" class="active-path" data-old_color="#ffffff"/>
	<path style="fill:#FFFFFF" d="M137.2,270.8c-4.4,0-8-3.6-8-8V130.4c0-4.4,3.6-8,8-8H254c4.4,0,8,3.6,8,8c0,4.4-3.6,8-8,8H144.8   v124.8C144.8,267.6,141.2,270.8,137.2,270.8z" data-original="#324A5E" class="active-path" data-old_color="#ffffff"/>
</g><g>
	<path style="fill:#FFFFFF" d="M337.6,90.4H200.4c-7.2,0-12.8,5.6-12.8,12.8v54.4c0,7.2,5.6,12.8,12.8,12.8h137.2   c7.2,0,12.8-5.6,12.8-12.8v-54.4C350.4,96,344.8,90.4,337.6,90.4z" data-original="#FFFFFF" class=""/>
	<path style="fill:#FFFFFF" d="M256,222.8H119.2c-7.2,0-12.8,5.6-12.8,12.8V290c0,7.2,5.6,12.8,12.8,12.8h137.2   c7.2,0,12.8-5.6,12.8-12.8v-54C269.2,228.8,263.2,222.8,256,222.8z" data-original="#FFFFFF" class=""/>
	<path style="fill:#FFFFFF" d="M388.8,337.6H252c-7.2,0-12.8,5.6-12.8,12.8v54.4c0,7.2,5.6,12.8,12.8,12.8h137.2   c7.2,0,12.8-5.6,12.8-12.8v-54.4C401.6,343.2,396,337.6,388.8,337.6z" data-original="#FFFFFF" class=""/>
</g></g> </svg>
