<?xml version="1.0"?>
<svg xmlns="http://www.w3.org/2000/svg" xmlns:xlink="http://www.w3.org/1999/xlink" version="1.1" id="Layer_1" x="0px" y="0px" viewBox="0 0 508 508" style="enable-background:new 0 0 508 508;" xml:space="preserve" width="512px" height="512px" class=""><g><circle style="fill:#009ACD" cx="254" cy="254" r="254" data-original="#324A5E" class="" data-old_color="#009acd"/><g>
	<path style="fill:#FFFFFF" d="M221.2,314.8v22c-1.2-0.4-2.8-0.4-4-0.4s-2.8,0-4,0.4v-18h-52.8v18c-1.2-0.4-2.8-0.4-4-0.4   s-2.8,0-4,0.4v-18H99.6v18c-1.2-0.4-2.8-0.4-4-0.4s-2.8,0-4,0.4v-22c0-2,1.6-4,4-4h56.8v-32.4c1.2,0.4,2.8,0.4,4,0.4s2.8,0,4-0.4   v32.4h56.8C219.2,310.8,221.2,312.8,221.2,314.8z" data-original="#E6E9EE" class="" data-old_color="#ffffff"/>
	<path style="fill:#FFFFFF" d="M355.6,209.2V232c-1.2-0.4-2.8-0.4-4-0.4s-2.8,0-4,0.4v-19.6H160.4V232c-1.2-0.4-2.8-0.4-4-0.4   s-2.8,0-4,0.4v-22.8c0-2.8,2-4.8,4.8-4.8H250v-47.2c1.2,0,2.8,0,4,0c1.2,0,2.8,0,4,0v47.6h92.8   C353.6,204.4,355.6,206.8,355.6,209.2z" data-original="#E6E9EE" class="" data-old_color="#ffffff"/>
	<path style="fill:#FFFFFF" d="M416.4,314.8v22c-1.2-0.4-2.8-0.4-4-0.4s-2.8,0-4,0.4v-18h-52.8v18c-1.2-0.4-2.8-0.4-4-0.4   s-2.8,0-4,0.4v-18h-52.8v18c-1.2-0.4-2.8-0.4-4-0.4s-2.8,0-4,0.4v-22c0-2,1.6-4,4-4h56.8v-32.4c1.2,0.4,2.8,0.4,4,0.4s2.8,0,4-0.4   v32.4h56.8C414.4,310.8,416.4,312.8,416.4,314.8z" data-original="#E6E9EE" class="" data-old_color="#ffffff"/>
</g><circle style="fill:#FFFFFF;" cx="254" cy="109.2" r="48" data-original="#FFFFFF" class=""/><circle style="fill:#FFFFFF" cx="254" cy="109.2" r="26.4" data-original="#FF7058" class="active-path" data-old_color="#ffffff"/><circle style="fill:#FFFFFF" cx="351.6" cy="255.2" r="23.6" data-original="#4CDBC4" class="" data-old_color="#ffffff"/><circle style="fill:#FFFFFF" cx="156.4" cy="255.2" r="23.6" data-original="#84DBFF" class="" data-old_color="#ffffff"/><g>
	<circle style="fill:#FFFFFF" cx="217.2" cy="357.6" r="21.2" data-original="#FF7058" class="active-path" data-old_color="#ffffff"/>
	<circle style="fill:#FFFFFF" cx="156.4" cy="357.6" r="21.2" data-original="#FF7058" class="active-path" data-old_color="#ffffff"/>
	<circle style="fill:#FFFFFF" cx="95.6" cy="357.6" r="21.2" data-original="#FF7058" class="active-path" data-old_color="#ffffff"/>
</g><g>
	<circle style="fill:#FFFFFF" cx="412.4" cy="357.6" r="21.2" data-original="#FFD05B" class="" data-old_color="#ffffff"/>
	<circle style="fill:#FFFFFF" cx="351.6" cy="357.6" r="21.2" data-original="#FFD05B" class="" data-old_color="#ffffff"/>
	<circle style="fill:#FFFFFF" cx="290.8" cy="357.6" r="21.2" data-original="#FFD05B" class="" data-old_color="#ffffff"/>
</g></g> </svg>
