<?xml version="1.0"?>
<svg xmlns="http://www.w3.org/2000/svg" xmlns:xlink="http://www.w3.org/1999/xlink" version="1.1" id="Layer_1" x="0px" y="0px" viewBox="0 0 505 505" style="enable-background:new 0 0 505 505;" xml:space="preserve" width="512px" height="512px" class=""><g><circle style="fill:#009ACD" cx="252.5" cy="252.5" r="252.5" data-original="#54C0EB" class="" data-old_color="#009acd"/><g>
	<path style="fill:#FFFFFF" d="M301.9,365.7h-10.6V259.9c0-2.9,2.4-5.3,5.3-5.3h91.6v10.6h-86.3L301.9,365.7L301.9,365.7z" data-original="#324A5E" class="active-path" data-old_color="#ffffff"/>
	<rect x="365.1" y="259.9" style="fill:#FFFFFF" width="10.6" height="123.5" data-original="#324A5E" class="active-path" data-old_color="#ffffff"/>
</g><g>
	<path style="fill:#FFFFFF" d="M394.4,409.8h-47.8c-1.4,0-2.5-1.1-2.5-2.5v-47.8c0-1.4,1.1-2.5,2.5-2.5h47.8c1.4,0,2.5,1.1,2.5,2.5   v47.8C396.8,408.7,395.7,409.8,394.4,409.8z" data-original="#FFFFFF" class=""/>
	<path style="fill:#FFFFFF" d="M320.5,392.1h-47.8c-1.4,0-2.5-1.1-2.5-2.5v-47.8c0-1.4,1.1-2.5,2.5-2.5h47.8c1.4,0,2.5,1.1,2.5,2.5   v47.8C323,391,321.9,392.1,320.5,392.1z" data-original="#FFFFFF" class=""/>
</g><g>
	<path style="fill:#FFFFFF" d="M213.7,365.7h-10.6V265.2h-86.3v-10.6h91.6c2.9,0,5.3,2.4,5.3,5.3V365.7z" data-original="#324A5E" class="active-path" data-old_color="#ffffff"/>
	<rect x="129.2" y="259.9" style="fill:#FFFFFF" width="10.6" height="123.5" data-original="#324A5E" class="active-path" data-old_color="#ffffff"/>
</g><g>
	<path style="fill:#FFFFFF" d="M110.6,409.8h47.8c1.4,0,2.5-1.1,2.5-2.5v-47.8c0-1.4-1.1-2.5-2.5-2.5h-47.8c-1.4,0-2.5,1.1-2.5,2.5   v47.8C108.2,408.7,109.3,409.8,110.6,409.8z" data-original="#FFFFFF" class=""/>
	<path style="fill:#FFFFFF" d="M184.5,392.1h47.8c1.4,0,2.5-1.1,2.5-2.5v-47.8c0-1.4-1.1-2.5-2.5-2.5h-47.8c-1.4,0-2.5,1.1-2.5,2.5   v47.8C182,391,183.1,392.1,184.5,392.1z" data-original="#FFFFFF" class=""/>
</g><path style="fill:#FFFFFF" d="M375.8,259.9h-10.6V142.3H139.9v117.6h-10.6V137c0-2.9,2.4-5.3,5.3-5.3h235.9c2.9,0,5.3,2.4,5.3,5.3  V259.9z" data-original="#324A5E" class="active-path" data-old_color="#ffffff"/><g>
	<path style="fill:#FFFFFF" d="M290.4,178.8h-75.8c-2.2,0-3.9-1.7-3.9-3.9V99.1c0-2.2,1.7-3.9,3.9-3.9h75.8c2.2,0,3.9,1.7,3.9,3.9   v75.8C294.3,177,292.5,178.8,290.4,178.8z" data-original="#FFFFFF" class=""/>
	<path style="fill:#FFFFFF" d="M408.4,301.7h-75.8c-2.2,0-3.9-1.7-3.9-3.9V222c0-2.2,1.7-3.9,3.9-3.9h75.8c2.2,0,3.9,1.7,3.9,3.9   v75.8C412.3,299.9,410.5,301.7,408.4,301.7z" data-original="#FFFFFF" class=""/>
	<path style="fill:#FFFFFF" d="M172.4,301.7H96.6c-2.2,0-3.9-1.7-3.9-3.9V222c0-2.2,1.7-3.9,3.9-3.9h75.8c2.2,0,3.9,1.7,3.9,3.9   v75.8C176.3,299.9,174.6,301.7,172.4,301.7z" data-original="#FFFFFF" class=""/>
</g></g> </svg>
