<?xml version="1.0"?>
<svg xmlns="http://www.w3.org/2000/svg" xmlns:xlink="http://www.w3.org/1999/xlink" version="1.1" id="Layer_1" x="0px" y="0px" viewBox="0 0 505 505" style="enable-background:new 0 0 505 505;" xml:space="preserve" width="512px" height="512px" class=""><g><circle style="fill:#009ACD" cx="252.5" cy="252.5" r="252.5" data-original="#54C0EB" class="" data-old_color="#009acd"/><path style="fill:#FFFFFF;" d="M382.6,117.7H122.2c-3.1,0-5.6,2.5-5.6,5.6v260.4c0,3.1,2.5,5.6,5.6,5.6h260.4c3.1,0,5.6-2.5,5.6-5.6  V123.3C388.2,120.2,385.7,117.7,382.6,117.7z M377,182.8h-53.9v-53.9H377V182.8z M258,182.8v-53.9h53.9v53.9L258,182.8L258,182.8z   M311.9,194v53.9H258V194H311.9z M246.8,182.8h-53.9v-53.9h53.9L246.8,182.8L246.8,182.8z M246.8,194v53.9h-53.9V194H246.8z   M181.7,247.9h-53.9V194h53.9L181.7,247.9L181.7,247.9z M181.7,259.1V313h-53.9v-53.9H181.7z M192.9,259.1h53.9V313h-53.9V259.1z   M246.8,324.2v53.9h-53.9v-53.9H246.8z M258,324.2h53.9v53.9H258V324.2z M258,313v-53.9h53.9V313H258z M323.1,259.1H377V313h-53.9  V259.1z M323.1,247.9V194H377v53.9H323.1z M181.7,128.9v53.9h-53.9v-53.9H181.7z M127.8,324.2h53.9v53.9h-53.9L127.8,324.2  L127.8,324.2z M323.1,378.1v-53.9H377v53.9H323.1z" data-original="#FFFFFF" class=""/><polygon style="fill:#FFFFFF" points="127.8,382.8 116.6,379.1 183,178.5 314.2,308.8 377.2,122.1 388.4,125.9 319.3,330.6   188.3,200.4 " data-original="#324A5E" class="" data-old_color="#ffffff"/><circle style="fill:#FFFFFF" cx="382.8" cy="124" r="35.7" data-original="#FFD05B" class="" data-old_color="#ffffff"/><circle style="fill:#009ACD" cx="382.8" cy="124" r="19.4" data-original="#FF7058" class="active-path" data-old_color="#009acd"/><circle style="fill:#FFFFFF" cx="316.8" cy="319.7" r="35.7" data-original="#FFD05B" class="" data-old_color="#ffffff"/><circle style="fill:#009ACD" cx="316.8" cy="319.7" r="19.4" data-original="#FF7058" class="active-path" data-old_color="#009acd"/><circle style="fill:#FFFFFF" cx="185.6" cy="189.4" r="35.7" data-original="#FFD05B" class="" data-old_color="#ffffff"/><circle style="fill:#009ACD" cx="185.6" cy="189.4" r="19.4" data-original="#FF7058" class="active-path" data-old_color="#009acd"/><circle style="fill:#FFFFFF" cx="122.2" cy="381" r="35.7" data-original="#FFD05B" class="" data-old_color="#ffffff"/><circle style="fill:#009ACD" cx="122.2" cy="381" r="19.4" data-original="#FF7058" class="active-path" data-old_color="#009acd"/></g> </svg>
