<?xml version="1.0"?>
<svg xmlns="http://www.w3.org/2000/svg" xmlns:xlink="http://www.w3.org/1999/xlink" version="1.1" id="Layer_1" x="0px" y="0px" viewBox="0 0 508 508" style="enable-background:new 0 0 508 508;" xml:space="preserve" width="512px" height="512px" class=""><g><circle style="fill:#009ACD" cx="254" cy="254" r="254" data-original="#324A5E" class="" data-old_color="#009acd"/><path style="fill:#FFFFFF" d="M310.8,103.6c0,1.6,0.4,3.6,0.4,5.2c0,3.2-0.4,6.4-0.8,9.6c36,14.4,65.2,43.2,79.6,79.2  c3.2-0.4,6-0.8,9.2-0.8c2,0,3.6,0,5.6,0.4C388.8,153.6,354.4,119.2,310.8,103.6z M196.8,106.8c-39.6,16.8-70.8,49.6-85.6,90  c4.8,0,9.6,0.8,14,2.4c13.2-34.4,39.6-62.4,72.8-77.6c-0.8-4-1.2-8.4-1.2-12.8C196.8,108,196.8,107.6,196.8,106.8z M399.2,311.2  c-4,0-8-0.4-12-1.2c-15.6,33.6-43.6,60-78,73.2c1.2,4.4,2,9.2,2.4,14c40.8-14.8,74-46.4,90.8-86.4  C400.8,311.2,400,311.2,399.2,311.2z M128,308c-4.4,1.6-9.2,2.8-14,3.2c16,37.2,45.6,67.2,83.2,82.8c0.4-4.8,1.6-9.6,3.2-14  C168,366,142.4,340,128,308z" data-original="#FFD05B" class="" data-old_color="#ffffff"/><g>
	<circle style="fill:#009ACD" cx="399.2" cy="254" r="30.4" data-original="#FF7058" class="active-path" data-old_color="#009acd"/>
	<circle style="fill:#009ACD" cx="108.8" cy="254" r="30.4" data-original="#FF7058" class="active-path" data-old_color="#009acd"/>
	<circle style="fill:#009ACD" cx="254" cy="399.2" r="30.4" data-original="#FF7058" class="active-path" data-old_color="#009acd"/>
</g><g>
	<circle style="fill:#FFFFFF" cx="399.2" cy="254" r="57.2" data-original="#FFFFFF" class=""/>
	<circle style="fill:#FFFFFF" cx="108.8" cy="254" r="57.2" data-original="#FFFFFF" class=""/>
	<circle style="fill:#FFFFFF" cx="254" cy="399.2" r="57.2" data-original="#FFFFFF" class=""/>
	<circle style="fill:#FFFFFF" cx="254" cy="108.8" r="57.2" data-original="#FFFFFF" class=""/>
</g><circle style="fill:#009ACD" cx="254" cy="108.8" r="30.4" data-original="#FF7058" class="active-path" data-old_color="#009acd"/></g> </svg>
